<svg width="65" height="66" viewBox="0 0 65 66" fill="none" xmlns="http://www.w3.org/2000/svg">
<rect y="0.5" width="65" height="65" rx="6" fill="#FFC657"/>
<circle cx="35.5" cy="29" r="17.5" fill="black" fill-opacity="0.1"/>
<path d="M36.9771 39.5006H27.0229C26.6253 39.5006 26.3029 39.1782 26.3029 38.7806V35.3905C26.3029 33.4907 27.8484 31.9452 29.7479 31.9452H34.2517C36.1516 31.9452 37.6971 33.4907 37.6971 35.3905V38.7806C37.6971 39.1782 37.3747 39.5006 36.9771 39.5006ZM27.7429 38.0606H36.2571V35.3905C36.2571 34.2848 35.3574 33.3852 34.2517 33.3852H29.7479C28.6422 33.3852 27.7429 34.2848 27.7429 35.3905V38.0606Z" fill="#74561C"/>
<path d="M32 31.3634C30.2562 31.3634 28.9938 29.0216 28.9938 27.4431C28.9938 25.7858 30.3424 24.4373 32 24.4373C33.6573 24.4373 35.0058 25.7858 35.0058 27.4431C35.0058 29.0216 33.7437 31.3634 32 31.3634ZM32 25.8773C31.1365 25.8773 30.4338 26.5797 30.4338 27.4431C30.4338 28.4226 31.274 29.9234 32 29.9234C32.726 29.9234 33.5658 28.4226 33.5658 27.4431C33.5658 26.5797 32.8634 25.8773 32 25.8773Z" fill="#74561C"/>
<path d="M42.3795 37.5944H36.9785C36.5809 37.5944 36.2585 37.2721 36.2585 36.8744C36.2585 36.4768 36.5809 36.1544 36.9785 36.1544H41.6595V34.7172C41.6595 33.876 40.9722 33.1915 40.1278 33.1915H37.4598C37.0818 33.1915 36.7243 33.3275 36.4529 33.5743C36.1586 33.8422 35.7026 33.8197 35.4358 33.5262C35.1683 33.2319 35.1897 32.7766 35.484 32.5091C36.0212 32.0204 36.7229 31.7515 37.4598 31.7515H40.1278C41.7664 31.7515 43.0995 33.0818 43.0995 34.7172V36.8744C43.0995 37.2721 42.7771 37.5944 42.3795 37.5944Z" fill="#74561C"/>
<path d="M38.7957 31.7347C37.3737 31.7347 36.4304 29.915 36.4304 28.7112C36.4304 27.4069 37.4914 26.3456 38.7957 26.3456C40.1 26.3456 41.1614 27.4069 41.1614 28.7112C41.1614 29.915 40.2178 31.7347 38.7957 31.7347ZM38.7957 27.7856C38.2856 27.7856 37.8704 28.2008 37.8704 28.7112C37.8704 29.3947 38.4526 30.2947 38.7957 30.2947C39.1392 30.2947 39.7214 29.3947 39.7214 28.7112C39.7214 28.2008 39.3062 27.7856 38.7957 27.7856Z" fill="#74561C"/>
<path d="M27.0201 37.5944H21.619C21.2214 37.5944 20.899 37.2721 20.899 36.8744V34.7172C20.899 33.0818 22.2322 31.7515 23.8708 31.7515H26.5388C27.2753 31.7515 27.9767 32.0204 28.5142 32.5087C28.8085 32.7763 28.8303 33.2315 28.5631 33.5258C28.2963 33.8204 27.8403 33.8419 27.546 33.5747C27.2739 33.3275 26.9164 33.1915 26.5388 33.1915H23.8708C23.0264 33.1915 22.339 33.876 22.339 34.7172V36.1544H27.0201C27.4177 36.1544 27.7401 36.4768 27.7401 36.8744C27.7401 37.2721 27.4177 37.5944 27.0201 37.5944Z" fill="#74561C"/>
<path d="M25.2039 31.7347C23.7819 31.7347 22.8383 29.915 22.8383 28.7112C22.8383 27.4069 23.8996 26.3456 25.2039 26.3456C26.5082 26.3456 27.5692 27.4069 27.5692 28.7112C27.5692 29.915 26.626 31.7347 25.2039 31.7347ZM25.2039 27.7856C24.6935 27.7856 24.2783 28.2008 24.2783 28.7112C24.2783 29.3947 24.8604 30.2947 25.2039 30.2947C25.547 30.2947 26.1292 29.3947 26.1292 28.7112C26.1292 28.2008 25.714 27.7856 25.2039 27.7856Z" fill="#74561C"/>
<path d="M32 50.5C22.0747 50.5 14 42.4253 14 32.5C14 22.5747 22.0747 14.5 32 14.5C41.9253 14.5 50 22.5747 50 32.5C50 42.4253 41.9253 50.5 32 50.5ZM32 15.94C22.8689 15.94 15.44 23.3689 15.44 32.5C15.44 41.6311 22.8689 49.06 32 49.06C41.1311 49.06 48.56 41.6311 48.56 32.5C48.56 23.3689 41.1311 15.94 32 15.94Z" fill="#74561C"/>
<path d="M49.28 33.22H46.6433C46.2457 33.22 45.9233 32.8976 45.9233 32.5C45.9233 32.1024 46.2457 31.78 46.6433 31.78H49.28C49.6776 31.78 50 32.1024 50 32.5C50 32.8976 49.6776 33.22 49.28 33.22Z" fill="#74561C"/>
<path d="M17.3567 33.22H14.72C14.3224 33.22 14 32.8976 14 32.5C14 32.1024 14.3224 31.78 14.72 31.78H17.3567C17.7543 31.78 18.0767 32.1024 18.0767 32.5C18.0767 32.8976 17.7543 33.22 17.3567 33.22Z" fill="#74561C"/>
<path d="M32 18.5767C31.6024 18.5767 31.28 18.2543 31.28 17.8567V15.22C31.28 14.8224 31.6024 14.5 32 14.5C32.3976 14.5 32.72 14.8224 32.72 15.22V17.8567C32.72 18.2543 32.3976 18.5767 32 18.5767Z" fill="#74561C"/>
<path d="M32 50.5C31.6024 50.5 31.28 50.1776 31.28 49.78V47.1436C31.28 46.746 31.6024 46.4236 32 46.4236C32.3976 46.4236 32.72 46.746 32.72 47.1436V49.78C32.72 50.1776 32.3976 50.5 32 50.5Z" fill="#74561C"/>
</svg>
