<svg width="37" height="38" viewBox="0 0 37 38" fill="none" xmlns="http://www.w3.org/2000/svg">
<g clip-path="url(#clip0)">
<path d="M15.4908 21.3323C14.2256 21.3323 13.1963 22.3616 13.1963 23.6269C13.1963 24.8921 14.2256 25.9214 15.4908 25.9214C16.7561 25.9214 17.7854 24.8921 17.7854 23.6269C17.7854 22.3616 16.7561 21.3323 15.4908 21.3323ZM15.4908 24.7177C14.8893 24.7177 14.4 24.2283 14.4 23.6269C14.4 23.0254 14.8893 22.536 15.4908 22.536C16.0923 22.536 16.5817 23.0254 16.5817 23.6269C16.5817 24.2283 16.0923 24.7177 15.4908 24.7177ZM23.7287 22.1599C23.1894 22.1599 22.7507 22.5986 22.7507 23.1379C22.7507 23.6771 23.1894 24.1159 23.7287 24.1159C24.2679 24.1159 24.7067 23.6771 24.7067 23.1379C24.7067 22.5986 24.2679 22.1599 23.7287 22.1599ZM21.1708 27.6518C20.0923 27.6518 19.2148 28.5293 19.2148 29.6078C19.2148 30.6863 20.0923 31.5638 21.1708 31.5638C22.2493 31.5638 23.1268 30.6863 23.1268 29.6078C23.1268 28.5293 22.2493 27.6518 21.1708 27.6518ZM21.1708 30.3601C20.756 30.3601 20.4185 30.0226 20.4185 29.6078C20.4185 29.1929 20.756 28.8555 21.1708 28.8555C21.5856 28.8555 21.9231 29.1929 21.9231 29.6078C21.9231 30.0226 21.5856 30.3601 21.1708 30.3601ZM16.0551 32.1656C15.5988 32.1656 15.2275 32.5369 15.2275 32.9932C15.2275 33.4495 15.5988 33.8207 16.0551 33.8207C16.5113 33.8207 16.8826 33.4495 16.8826 32.9932C16.8826 32.5369 16.5113 32.1656 16.0551 32.1656ZM19.8919 18.6992C19.8919 18.2429 19.5206 17.8717 19.0643 17.8717C18.608 17.8717 18.2368 18.2429 18.2368 18.6992C18.2368 19.1555 18.608 19.5268 19.0643 19.5268C19.5206 19.5268 19.8919 19.1555 19.8919 18.6992ZM21.5846 3.52126C21.5846 3.18889 21.8541 2.91941 22.1864 2.91941C23.5346 2.91941 24.6314 4.01628 24.6314 5.36443V14.9C24.6314 15.2324 24.362 15.5019 24.0296 15.5019C23.6972 15.5019 23.4277 15.2324 23.4277 14.9V5.36443C23.4277 4.67997 22.8709 4.12311 22.1864 4.12311C21.8541 4.12311 21.5846 3.85363 21.5846 3.52126ZM12.9706 19.7807C12.6382 19.7807 12.3687 19.5112 12.3687 19.1788C12.3687 18.8008 12.3687 15.7909 12.3687 15.4266C12.3687 14.7422 11.8119 14.1853 11.1274 14.1853C10.4429 14.1853 9.88608 14.7422 9.88608 15.4266V23.4646C9.88608 24.2667 10.2765 25.0228 10.9304 25.4872C11.9018 26.1769 12.4816 27.2999 12.4816 28.4912V36.4538C12.4816 36.7862 12.2121 37.0557 11.8797 37.0557C11.5473 37.0557 11.2779 36.7862 11.2779 36.4538V28.4911C11.2779 27.689 10.8875 26.9329 10.2335 26.4685C9.26218 25.7788 8.68237 24.6558 8.68237 23.4645V15.4266C8.68237 13.5395 10.7443 12.3599 12.3687 13.3214V5.36443C12.3687 3.47409 14.4356 2.29709 16.0584 3.26111C16.1255 1.97247 17.195 0.94458 18.5001 0.94458C19.8482 0.94458 20.9451 2.04146 20.9451 3.3896V15.5583C20.9451 15.8907 20.6756 16.1601 20.3433 16.1601C20.0109 16.1601 19.7414 15.8907 19.7414 15.5583V3.3896C19.7414 2.70515 19.1845 2.14828 18.5001 2.14828C17.8156 2.14828 17.2588 2.70515 17.2588 3.3896V15.5583C17.2588 15.8907 16.9893 16.1601 16.6569 16.1601C16.3245 16.1601 16.0551 15.8907 16.0551 15.5583V5.36443C16.0551 4.67997 15.4982 4.12311 14.8137 4.12311C14.1293 4.12311 13.5724 4.67997 13.5724 5.36443V19.1788C13.5724 19.5112 13.3029 19.7807 12.9706 19.7807ZM26.7379 30.5106V36.4538C26.7379 36.7862 26.4685 37.0557 26.1361 37.0557C25.8037 37.0557 25.5342 36.7862 25.5342 36.4538V30.5106C25.5342 30.1782 25.8037 29.9087 26.1361 29.9087C26.4685 29.9087 26.7379 30.1782 26.7379 30.5106ZM28.3178 7.95992V23.5419C28.3178 24.4282 27.9762 25.2651 27.356 25.8983C26.9575 26.3051 26.7379 26.8428 26.7379 27.4123C26.7379 27.7772 26.4546 28.0279 26.1361 28.0279C25.8186 28.0279 25.5342 27.7784 25.5342 27.4123C25.5342 26.5259 25.8759 25.689 26.4961 25.0559C26.8946 24.649 27.1141 24.1114 27.1141 23.5419V7.95992C27.1141 7.29622 26.5741 6.75621 25.9104 6.75621C25.578 6.75621 25.3085 6.48673 25.3085 6.15436C25.3085 5.82199 25.578 5.55251 25.9104 5.55251C27.2378 5.55251 28.3178 6.63246 28.3178 7.95992Z" fill="#74561C"/>
<ellipse cx="19.9444" cy="25.5001" rx="1.44444" ry="1.44445" fill="black" fill-opacity="0.15"/>
<ellipse cx="24.9999" cy="19.0002" rx="1.44445" ry="1.44444" fill="black" fill-opacity="0.15"/>
<ellipse cx="23.5555" cy="34.889" rx="1.44445" ry="1.44445" fill="black" fill-opacity="0.15"/>
</g>
<defs>
<clipPath id="clip0">
<rect width="36.1111" height="36.1111" fill="white" transform="translate(0.444336 0.944458)"/>
</clipPath>
</defs>
</svg>
