<svg width="37" height="38" viewBox="0 0 37 38" fill="none" xmlns="http://www.w3.org/2000/svg">
<path d="M16.4939 16.5928V37.0558H31.9414C33.9358 37.0558 35.5525 35.439 35.5525 33.4447V16.5928C35.5525 14.5984 33.9358 12.9817 31.9414 12.9817H20.105C18.1106 12.9817 16.4939 14.5984 16.4939 16.5928Z" fill="black" fill-opacity="0.15"/>
<path d="M26.556 11.6652H16.3996C16.0101 11.6652 15.6943 11.9809 15.6943 12.3705C15.6943 12.76 16.0101 13.0757 16.3996 13.0757H26.556C26.9455 13.0757 27.2613 12.76 27.2613 12.3705C27.2613 11.9809 26.9455 11.6652 26.556 11.6652Z" fill="white"/>
<path d="M24.0882 15.2572C23.957 15.126 23.7751 15.0505 23.5896 15.0505C23.4041 15.0505 23.2221 15.126 23.0909 15.2572C22.9597 15.3884 22.8843 15.5703 22.8843 15.7558C22.8843 15.9413 22.9597 16.1233 23.0909 16.2545C23.2221 16.3857 23.4041 16.4611 23.5896 16.4611C23.7751 16.4611 23.957 16.3857 24.0882 16.2545C24.2194 16.1233 24.2949 15.9413 24.2949 15.7558C24.2949 15.5703 24.2194 15.3884 24.0882 15.2572Z" fill="white"/>
<path d="M16.8975 4.18407C16.7664 4.05288 16.5844 3.97742 16.3989 3.97742C16.2134 3.97742 16.0314 4.05288 15.9003 4.18407C15.7691 4.31525 15.6936 4.49722 15.6936 4.68271C15.6936 4.8682 15.7691 5.05017 15.9003 5.18135C16.0314 5.31254 16.2134 5.38801 16.3989 5.38801C16.5844 5.38801 16.7664 5.31254 16.8975 5.18135C17.0287 5.05017 17.1042 4.8682 17.1042 4.68271C17.1042 4.49722 17.0287 4.31525 16.8975 4.18407Z" fill="white"/>
<path d="M20.6227 15.0505H16.3996C16.0101 15.0505 15.6943 15.3663 15.6943 15.7558C15.6943 16.1454 16.0101 16.4611 16.3996 16.4611H20.6227C21.0122 16.4611 21.328 16.1454 21.328 15.7558C21.328 15.3663 21.0122 15.0505 20.6227 15.0505Z" fill="white"/>
<path d="M26.556 19.2823H16.3996C16.0101 19.2823 15.6943 19.5981 15.6943 19.9876C15.6943 20.3772 16.0101 20.6929 16.3996 20.6929H26.556C26.9455 20.6929 27.2613 20.3772 27.2613 19.9876C27.2613 19.5981 26.9455 19.2823 26.556 19.2823Z" fill="white"/>
<path d="M24.0882 22.8744C23.957 22.7432 23.7751 22.6677 23.5896 22.6677C23.4041 22.6677 23.2221 22.7432 23.0909 22.8744C22.9597 23.0056 22.8843 23.1875 22.8843 23.373C22.8843 23.5585 22.9597 23.7405 23.0909 23.8717C23.2221 24.0028 23.4041 24.0783 23.5896 24.0783C23.7751 24.0783 23.957 24.0028 24.0882 23.8717C24.2194 23.7405 24.2949 23.5585 24.2949 23.373C24.2949 23.1875 24.2194 23.0056 24.0882 22.8744Z" fill="white"/>
<path d="M20.6227 22.6677H16.3996C16.0101 22.6677 15.6943 22.9835 15.6943 23.373C15.6943 23.7626 16.0101 24.0783 16.3996 24.0783H20.6227C21.0122 24.0783 21.328 23.7626 21.328 23.373C21.328 22.9835 21.0122 22.6677 20.6227 22.6677Z" fill="white"/>
<path d="M26.556 26.8995H16.3996C16.0101 26.8995 15.6943 27.2153 15.6943 27.6048C15.6943 27.9944 16.0101 28.3101 16.3996 28.3101H26.556C26.9455 28.3101 27.2613 27.9944 27.2613 27.6048C27.2613 27.2153 26.9455 26.8995 26.556 26.8995Z" fill="white"/>
<path d="M24.0882 30.4916C23.957 30.3604 23.7751 30.2849 23.5896 30.2849C23.4041 30.2849 23.2221 30.3604 23.0909 30.4916C22.9597 30.6227 22.8843 30.8047 22.8843 30.9902C22.8843 31.1757 22.9597 31.3577 23.0909 31.4888C23.2221 31.62 23.4041 31.6955 23.5896 31.6955C23.7751 31.6955 23.957 31.62 24.0882 31.4888C24.2194 31.3577 24.2949 31.1757 24.2949 30.9902C24.2949 30.8047 24.2194 30.6227 24.0882 30.4916Z" fill="white"/>
<path d="M20.6227 30.2849H16.3996C16.0101 30.2849 15.6943 30.6007 15.6943 30.9902C15.6943 31.3797 16.0101 31.6955 16.3996 31.6955H20.6227C21.0122 31.6955 21.328 31.3797 21.328 30.9902C21.328 30.6007 21.0122 30.2849 20.6227 30.2849Z" fill="white"/>
<path d="M27.9131 3.6953H22.5261C21.7474 2.95326 20.6948 2.49623 19.5367 2.49623H18.9189C18.4466 1.56115 17.4762 0.94458 16.3997 0.94458C15.3232 0.94458 14.3528 1.56115 13.8804 2.49623H13.2611C12.1031 2.49623 11.0505 2.95326 10.2718 3.6953H4.88638C2.9902 3.6953 1.44751 5.23799 1.44751 7.13417V33.6168C1.44751 35.513 2.9902 37.0557 4.88638 37.0557H27.913C29.8092 37.0557 31.3519 35.513 31.3519 33.6168V7.13417C31.352 5.23799 29.8093 3.6953 27.9131 3.6953ZM13.2612 3.90681H14.3605C14.6777 3.90681 14.9559 3.69501 15.0403 3.38927C15.2085 2.78039 15.7675 2.35517 16.3997 2.35517C17.032 2.35517 17.591 2.78039 17.7591 3.38927C17.8435 3.69501 18.1218 3.90681 18.439 3.90681H19.5367C21.0676 3.90681 22.3277 5.08818 22.4534 6.587H10.3445C10.4703 5.08818 11.7304 3.90681 13.2612 3.90681ZM29.9414 33.6169C29.9414 34.7353 29.0315 35.6452 27.9131 35.6452H4.88638C3.768 35.6452 2.8581 34.7353 2.8581 33.6169V7.13417C2.8581 6.01578 3.768 5.10588 4.88638 5.10588H9.28368C9.05262 5.6357 8.92362 6.21982 8.92362 6.83385V7.29229C8.92362 7.68183 9.23938 7.99759 9.62892 7.99759H23.1691C23.5586 7.99759 23.8744 7.68183 23.8744 7.29229V6.83385C23.8744 6.2199 23.7454 5.6357 23.5143 5.10588H27.9131C29.0315 5.10588 29.9414 6.01578 29.9414 7.13417V33.6169Z" fill="white"/>
<path d="M11.9149 11.4956C11.6394 11.2202 11.1928 11.2202 10.9174 11.4956L7.90145 14.5116L6.97237 13.5825C6.69695 13.3071 6.25036 13.3071 5.97487 13.5825C5.69946 13.8579 5.69946 14.3045 5.97487 14.58L7.40274 16.0078C7.54048 16.1456 7.72097 16.2144 7.90145 16.2144C8.08194 16.2144 8.26249 16.1456 8.40017 16.0078L11.9149 12.4931C12.1903 12.2177 12.1903 11.7711 11.9149 11.4956Z" fill="white"/>
<path d="M10.1932 26.8995H6.80783C6.4183 26.8995 6.10254 27.2153 6.10254 27.6048V30.9902C6.10254 31.3798 6.4183 31.6955 6.80783 31.6955H10.1932C10.5828 31.6955 10.8985 31.3798 10.8985 30.9902V27.6048C10.8985 27.2153 10.5828 26.8995 10.1932 26.8995ZM9.48795 30.2849H7.51313V28.3101H9.48795V30.2849Z" fill="white"/>
<path d="M10.1932 19.2823H6.80783C6.4183 19.2823 6.10254 19.5981 6.10254 19.9876V23.3731C6.10254 23.7626 6.4183 24.0783 6.80783 24.0783H10.1932C10.5828 24.0783 10.8985 23.7626 10.8985 23.3731V19.9876C10.8985 19.5981 10.5828 19.2823 10.1932 19.2823ZM9.48795 22.6678H7.51313V20.6929H9.48795V22.6678Z" fill="white"/>
</svg>
