<svg width="120" height="120" viewBox="0 0 120 120" fill="none" xmlns="http://www.w3.org/2000/svg">
<path d="M60 120C26.9166 120 0 93.0834 0 60C0 26.9166 26.9166 0 60 0C93.0834 0 120 26.9166 120 60C120 93.0834 93.0834 120 60 120Z" fill="#33BCBF"/>
<path opacity="0.1" d="M88.0001 99.9999C54.9166 99.9999 28.0001 73.0834 28.0001 39.9999C28.0001 26.1514 32.7621 13.4195 40.673 3.25391C17.055 11.3227 0 33.6842 0 59.9999C0 93.0833 26.9166 120 60 120C79.2349 120 96.3396 110.865 107.327 96.7459C101.253 98.8213 94.7677 99.9999 88.0001 99.9999Z" fill="black"/>
<path d="M47.5863 91.0347C46.5273 91.0347 45.468 90.6304 44.6605 89.8222L19.833 64.9947C18.2165 63.3794 18.2165 60.7588 19.833 59.1433C21.4473 57.5268 24.07 57.5268 25.6844 59.1433L47.5865 81.0442L90.178 38.4536C91.7924 36.8371 94.4151 36.8371 96.0295 38.4536C97.6459 40.0689 97.6459 42.6894 96.0295 44.305L50.512 89.8222C49.7048 90.6304 48.6452 91.0347 47.5863 91.0347Z" fill="white"/>
</svg>
