<svg width="39" height="38" viewBox="0 0 39 38" fill="none" xmlns="http://www.w3.org/2000/svg">
<path d="M31.21 16.7441C33.1751 18.1472 35.4731 19.0653 37.8996 19.4168C38.0843 19.4448 38.2526 19.5344 38.3744 19.6698C38.4962 19.8052 38.5636 19.9775 38.5647 20.1559V27.629C38.5634 28.2952 38.3756 28.9488 38.0207 29.5224C37.6658 30.0961 37.1567 30.5687 36.546 30.8915L31.077 33.3701C30.9723 33.4192 30.8572 33.4447 30.7406 33.4447C30.6239 33.4447 30.5088 33.4192 30.4041 33.3701L24.9821 30.9139L24.9351 30.8915C24.3238 30.5695 23.8142 30.0969 23.4591 29.5232C23.1041 28.9494 22.9168 28.2953 22.9165 27.629V20.1559C22.9175 19.9775 22.985 19.8052 23.1068 19.6698C23.2286 19.5344 23.3969 19.4448 23.5815 19.4168C26.0081 19.0653 28.306 18.1472 30.2711 16.7441C30.406 16.646 30.571 16.5929 30.7406 16.5929C30.9102 16.5929 31.0751 16.646 31.21 16.7441Z" fill="black" fill-opacity="0.1"/>
<path d="M13.285 2.75525C12.928 2.75525 12.5789 2.86113 12.2821 3.05949C11.9852 3.25786 11.7538 3.53981 11.6172 3.86968C11.4805 4.19956 11.4448 4.56254 11.5144 4.91273C11.5841 5.26292 11.756 5.58459 12.0085 5.83707C12.261 6.08954 12.5826 6.26148 12.9328 6.33114C13.283 6.40079 13.646 6.36504 13.9759 6.2284C14.3058 6.09177 14.5877 5.86038 14.7861 5.5635C14.9844 5.26662 15.0903 4.91759 15.0903 4.56054C15.0903 4.08174 14.9001 3.62256 14.5616 3.28401C14.223 2.94545 13.7638 2.75525 13.285 2.75525ZM13.285 5.1623C13.166 5.1623 13.0497 5.12701 12.9507 5.06088C12.8517 4.99476 12.7746 4.90078 12.7291 4.79082C12.6835 4.68086 12.6716 4.55987 12.6948 4.44314C12.718 4.32641 12.7754 4.21918 12.8595 4.13503C12.9437 4.05087 13.0509 3.99356 13.1676 3.97034C13.2844 3.94712 13.4054 3.95903 13.5153 4.00458C13.6253 4.05013 13.7192 4.12726 13.7854 4.22622C13.8515 4.32517 13.8868 4.44152 13.8868 4.56054C13.8868 4.72013 13.8234 4.87319 13.7105 4.98605C13.5977 5.0989 13.4446 5.1623 13.285 5.1623Z" fill="#328C4B"/>
<path d="M5.46191 19.6047H7.86896V20.8083H5.46191V19.6047Z" fill="#328C4B"/>
<path d="M9.07251 19.6047H18.0989V20.8083H9.07251V19.6047Z" fill="#328C4B"/>
<path d="M5.46191 23.2152H7.86896V24.4187H5.46191V23.2152Z" fill="#328C4B"/>
<path d="M5.46191 26.8258H7.86896V28.0293H5.46191V26.8258Z" fill="#328C4B"/>
<path d="M5.46191 30.4363H7.86896V31.6398H5.46191V30.4363Z" fill="#328C4B"/>
<path d="M35.5501 20.8081H34.9484C32.9961 20.8032 31.0972 20.1703 29.5325 19.0028L28.0883 17.9196C27.9845 17.8406 27.8577 17.7978 27.7272 17.7978C27.5968 17.7978 27.4699 17.8406 27.3662 17.9196L26.5237 18.5515V6.36581C26.5223 5.88746 26.3316 5.4291 25.9934 5.09086C25.6551 4.75261 25.1968 4.56195 24.7184 4.56052H19.796C19.6711 4.20985 19.4412 3.90618 19.1375 3.69083C18.8339 3.47548 18.4713 3.35891 18.099 3.357H16.6909C16.4428 2.65174 15.9819 2.0409 15.3718 1.60878C14.7617 1.17666 14.0325 0.94458 13.2849 0.94458C12.5373 0.94458 11.8081 1.17666 11.198 1.60878C10.5879 2.0409 10.127 2.65174 9.87894 3.357H8.47082C8.09857 3.35891 7.73595 3.47548 7.43231 3.69083C7.12867 3.90618 6.89875 4.20985 6.77385 4.56052H1.85143C1.37308 4.56195 0.914725 4.75261 0.576477 5.09086C0.238229 5.4291 0.0475712 5.88746 0.0461426 6.36581V35.2504C0.0475712 35.7288 0.238229 36.1871 0.576477 36.5254C0.914725 36.8636 1.37308 37.0543 1.85143 37.0557H24.7184C24.9909 37.0539 25.2596 36.9908 25.5044 36.871C25.7492 36.7512 25.9639 36.5778 26.1325 36.3637L27.4685 36.9955C27.549 37.0351 27.6375 37.0557 27.7272 37.0557C27.8169 37.0557 27.9055 37.0351 27.986 36.9955L33.2694 34.4862C34.1409 34.0279 34.8702 33.3398 35.3783 32.4964C35.8864 31.6531 36.154 30.6867 36.1519 29.7022V21.4099C36.1519 21.2503 36.0885 21.0972 35.9756 20.9844C35.8628 20.8715 35.7097 20.8081 35.5501 20.8081ZM19.9043 5.76405H24.7184C24.878 5.76405 25.0311 5.82745 25.1439 5.9403C25.2568 6.05315 25.3202 6.20621 25.3202 6.36581V19.418C24.9352 19.6581 24.5329 19.8693 24.1166 20.0499V7.56933C24.1166 7.40974 24.0532 7.25668 23.9404 7.14382C23.8275 7.03097 23.6745 6.96757 23.5149 6.96757H19.9043V5.76405ZM7.86905 5.16228C7.86905 5.00269 7.93245 4.84963 8.04531 4.73677C8.15816 4.62392 8.31122 4.56052 8.47082 4.56052H10.3363C10.4754 4.56194 10.6105 4.51454 10.7183 4.42658C10.826 4.33862 10.8995 4.21567 10.926 4.07911C11.0365 3.53498 11.3317 3.04578 11.7616 2.6944C12.1915 2.34301 12.7297 2.15106 13.2849 2.15106C13.8402 2.15106 14.3783 2.34301 14.8082 2.6944C15.2381 3.04578 15.5333 3.53498 15.6438 4.07911C15.6703 4.21567 15.7438 4.33862 15.8515 4.42658C15.9593 4.51454 16.0945 4.56194 16.2336 4.56052H18.099C18.2586 4.56052 18.4117 4.62392 18.5245 4.73677C18.6374 4.84963 18.7008 5.00269 18.7008 5.16228V7.56933H7.86905V5.16228ZM7.26729 8.77286H19.3025C19.4621 8.77286 19.6152 8.70946 19.7281 8.59661C19.8409 8.48375 19.9043 8.33069 19.9043 8.1711H22.9131V20.4711C22.1296 20.6912 21.3199 20.8046 20.5061 20.8081H19.9043C19.7447 20.8081 19.5916 20.8715 19.4788 20.9844C19.3659 21.0972 19.3025 21.2503 19.3025 21.4099V23.2152H9.07258V24.4187H19.3025V26.8257H9.07258V28.0293H19.3025V29.7022C19.3034 29.9476 19.3195 30.1928 19.3507 30.4363H9.07258V31.6398H19.6696C19.9292 32.3119 20.3199 32.9255 20.819 33.4451H3.65672V8.1711H6.66553C6.66553 8.33069 6.72893 8.48375 6.84178 8.59661C6.95463 8.70946 7.10769 8.77286 7.26729 8.77286ZM24.7184 35.8522H1.85143C1.69183 35.8522 1.53877 35.7888 1.42592 35.6759C1.31307 35.5631 1.24967 35.41 1.24967 35.2504V6.36581C1.24967 6.20621 1.31307 6.05315 1.42592 5.9403C1.53877 5.82745 1.69183 5.76405 1.85143 5.76405H6.66553V6.96757H3.05495C2.89536 6.96757 2.7423 7.03097 2.62944 7.14382C2.51659 7.25668 2.45319 7.40974 2.45319 7.56933V34.0469C2.45319 34.2065 2.51659 34.3595 2.62944 34.4724C2.7423 34.5852 2.89536 34.6486 3.05495 34.6486H22.528L24.9471 35.798C24.8751 35.8308 24.7974 35.8492 24.7184 35.8522ZM34.9484 29.7022C34.9506 30.4636 34.745 31.2112 34.3537 31.8644C33.9624 32.5176 33.4002 33.0517 32.7279 33.409L27.7272 35.786L22.7386 33.415C22.064 33.0577 21.4997 32.5231 21.1063 31.8689C20.7129 31.2147 20.5054 30.4655 20.5061 29.7022V22.0116C22.7188 22.0073 24.8713 21.2898 26.644 19.9656L27.7272 19.1533L28.8104 19.9656C30.5832 21.2898 32.7356 22.0073 34.9484 22.0116V29.7022Z" fill="#328C4B"/>
<path d="M16.8954 12.3836H15.0901V10.5783C15.0901 10.4187 15.0267 10.2657 14.9139 10.1528C14.801 10.04 14.648 9.97656 14.4884 9.97656H12.0813C11.9217 9.97656 11.7687 10.04 11.6558 10.1528C11.543 10.2657 11.4796 10.4187 11.4796 10.5783V12.3836H9.67427C9.51467 12.3836 9.36161 12.447 9.24876 12.5599C9.13591 12.6727 9.07251 12.8258 9.07251 12.9854V15.3924C9.07251 15.552 9.13591 15.7051 9.24876 15.8179C9.36161 15.9308 9.51467 15.9942 9.67427 15.9942H11.4796V17.7995C11.4796 17.9591 11.543 18.1121 11.6558 18.225C11.7687 18.3378 11.9217 18.4012 12.0813 18.4012H14.4884C14.648 18.4012 14.801 18.3378 14.9139 18.225C15.0267 18.1121 15.0901 17.9591 15.0901 17.7995V15.9942H16.8954C17.055 15.9942 17.2081 15.9308 17.3209 15.8179C17.4338 15.7051 17.4972 15.552 17.4972 15.3924V12.9854C17.4972 12.8258 17.4338 12.6727 17.3209 12.5599C17.2081 12.447 17.055 12.3836 16.8954 12.3836ZM16.2937 14.7907H14.4884C14.3288 14.7907 14.1757 14.8541 14.0629 14.9669C13.95 15.0798 13.8866 15.2328 13.8866 15.3924V17.1977H12.6831V15.3924C12.6831 15.2328 12.6197 15.0798 12.5068 14.9669C12.394 14.8541 12.2409 14.7907 12.0813 14.7907H10.276V13.5871H12.0813C12.2409 13.5871 12.394 13.5237 12.5068 13.4109C12.6197 13.298 12.6831 13.145 12.6831 12.9854V11.1801H13.8866V12.9854C13.8866 13.145 13.95 13.298 14.0629 13.4109C14.1757 13.5237 14.3288 13.5871 14.4884 13.5871H16.2937V14.7907Z" fill="#328C4B"/>
<path d="M33.2332 23.0828C31.3669 22.7995 29.5995 22.0595 28.0882 20.9285C27.9844 20.8495 27.8575 20.8066 27.7271 20.8066C27.5966 20.8066 27.4698 20.8495 27.366 20.9285C25.8546 22.0595 24.0873 22.7995 22.221 23.0828C22.0789 23.1054 21.9495 23.1777 21.8558 23.2868C21.7621 23.3959 21.7103 23.5348 21.7095 23.6786V29.7022C21.7097 30.2393 21.8538 30.7665 22.1268 31.229C22.3999 31.6914 22.7919 32.0723 23.262 32.3319L23.2981 32.35L27.4683 34.3298C27.5489 34.3693 27.6374 34.3899 27.7271 34.3899C27.8168 34.3899 27.9053 34.3693 27.9859 34.3298L32.1922 32.3319C32.6618 32.0717 33.0534 31.6907 33.3264 31.2284C33.5993 30.766 33.7438 30.2391 33.7447 29.7022V23.6786C33.7439 23.5348 33.6921 23.3959 33.5984 23.2868C33.5047 23.1777 33.3753 23.1054 33.2332 23.0828ZM32.5412 29.7022C32.5429 30.0188 32.4601 30.3301 32.3015 30.604C32.1428 30.878 31.914 31.1047 31.6386 31.2608L27.7271 33.1202L23.8277 31.2728C23.5499 31.1153 23.319 30.8869 23.1583 30.611C22.9976 30.3351 22.9129 30.0215 22.913 29.7022V24.1841C24.6413 23.8471 26.2807 23.1544 27.7271 22.1501C29.1735 23.1544 30.8129 23.8471 32.5412 24.1841V29.7022Z" fill="#328C4B"/>
<path d="M25.1439 28.2057L24.293 29.0566L26.0983 30.8619C26.2111 30.9747 26.3641 31.0381 26.5237 31.0381C26.6833 31.0381 26.8363 30.9747 26.9491 30.8619L31.7632 26.0478L30.9124 25.1969L26.5237 29.5856L25.1439 28.2057Z" fill="#328C4B"/>
</svg>
