<svg width="37" height="38" viewBox="0 0 37 38" fill="none" xmlns="http://www.w3.org/2000/svg">
<g clip-path="url(#clip0)">
<rect x="8.06152" y="2.56677" width="12.8364" height="29.3403" rx="6.41819" fill="black" fill-opacity="0.15"/>
<path d="M18.9133 18.0221V26.6185C18.9133 28.3638 17.8634 29.9034 16.2385 30.5406L14.6944 31.1461C14.3851 31.2674 14.0358 31.1151 13.9144 30.8055C13.793 30.4961 13.9455 30.1469 14.2549 30.0255L15.799 29.4199C16.9597 28.9648 17.7096 27.8651 17.7096 26.6184V18.0221C17.7096 17.6898 17.979 17.4203 18.3114 17.4203C18.6438 17.4203 18.9133 17.6898 18.9133 18.0221ZM14.4747 32.4164H12.7444C12.412 32.4164 12.1425 32.6859 12.1425 33.0182C12.1425 33.3506 12.412 33.6201 12.7444 33.6201H13.8728V34.2721C13.8728 35.1433 13.1642 35.852 12.293 35.852C11.4218 35.852 10.7131 35.1433 10.7131 34.2721V30.5858C10.7131 30.3382 10.5615 30.1159 10.331 30.0255L8.78697 29.4199C7.62629 28.9648 6.87639 27.8651 6.87639 26.6184V24.5673C6.87639 24.2349 6.60691 23.9654 6.27453 23.9654C5.94216 23.9654 5.67268 24.2349 5.67268 24.5673V26.6185C5.67268 28.3638 6.72261 29.9034 8.34754 30.5406L9.50949 30.9962V34.2721C9.50949 35.807 10.7582 37.0557 12.2931 37.0557C13.8279 37.0557 15.0766 35.807 15.0766 34.2721V33.0182C15.0765 32.6859 14.8071 32.4164 14.4747 32.4164ZM12.293 9.06958C11.9606 9.06958 11.6911 9.33906 11.6911 9.67143V26.1471C11.6911 26.4795 11.9606 26.749 12.293 26.749C12.6253 26.749 12.8948 26.4795 12.8948 26.1471V9.67143C12.8948 9.33906 12.6253 9.06958 12.293 9.06958ZM6.27446 21.8965H8.38094C8.71331 21.8965 8.98279 21.6271 8.98279 21.2947C8.98279 20.9623 8.71331 20.6928 8.38094 20.6928H6.87631V14.3734H8.38094C8.71331 14.3734 8.98279 14.1039 8.98279 13.7715C8.98279 13.4392 8.71331 13.1697 8.38094 13.1697H6.87631V7.56495C6.87631 4.57819 9.30621 2.14828 12.293 2.14828C12.6253 2.14828 12.8948 1.8788 12.8948 1.54643C12.8948 1.21406 12.6253 0.94458 12.293 0.94458C8.64252 0.94458 5.67261 3.91449 5.67261 7.56495V21.2947C5.67261 21.6271 5.94209 21.8965 6.27446 21.8965ZM21.8474 12.5302C22.1797 12.5302 22.4492 12.2607 22.4492 11.9284V5.30801C22.4492 4.97563 22.1797 4.70615 21.8474 4.70615C21.515 4.70615 21.2455 4.97563 21.2455 5.30801V8.31727H18.8381V5.30801C18.8381 4.97563 18.5686 4.70615 18.2363 4.70615C17.9039 4.70615 17.6344 4.97563 17.6344 5.30801V8.91912C17.6344 9.25149 17.9039 9.52097 18.2363 9.52097H21.2455V11.9284C21.2455 12.2607 21.515 12.5302 21.8474 12.5302ZM27.8659 10.7247C28.1983 10.7247 28.4677 10.4552 28.4677 10.1228V7.11356C28.4677 5.7861 27.3878 4.70615 26.0603 4.70615C24.7329 4.70615 23.6529 5.7861 23.6529 7.11356V10.1228C23.6529 11.4503 24.7329 12.5302 26.0603 12.5302C26.3927 12.5302 26.6622 12.2607 26.6622 11.9284C26.6622 11.596 26.3927 11.3265 26.0603 11.3265C25.3966 11.3265 24.8566 10.7865 24.8566 10.1228V7.11356C24.8566 6.44987 25.3966 5.90986 26.0603 5.90986C26.724 5.90986 27.264 6.44987 27.264 7.11356V10.1228C27.264 10.4552 27.5335 10.7247 27.8659 10.7247ZM28.3173 0.94458H17.6344C15.9751 0.94458 14.6252 2.29453 14.6252 3.95384V12.6807C14.6252 14.34 15.9751 15.6899 17.6344 15.6899H28.3173C28.6497 15.6899 28.9191 15.4205 28.9191 15.0881C28.9191 14.7557 28.6497 14.4862 28.3173 14.4862H17.6344C16.6389 14.4862 15.8289 13.6762 15.8289 12.6807V3.95384C15.8289 2.9583 16.6389 2.14828 17.6344 2.14828H28.3173C29.3128 2.14828 30.1228 2.9583 30.1228 3.95384V12.6807C30.1228 13.0131 30.3923 13.2825 30.7247 13.2825C31.0571 13.2825 31.3265 13.0131 31.3265 12.6807V3.95384C31.3265 2.29453 29.9766 0.94458 28.3173 0.94458Z" fill="white"/>
</g>
<defs>
<clipPath id="clip0">
<rect width="36.1111" height="36.1111" fill="white" transform="translate(0.444336 0.944458)"/>
</clipPath>
</defs>
</svg>
