<svg width="25" height="24" viewBox="0 0 25 24" fill="none" xmlns="http://www.w3.org/2000/svg">
<path fill-rule="evenodd" clip-rule="evenodd" d="M12.5 4.94117C8.60152 4.94117 5.44117 8.10152 5.44117 12C5.44117 15.8985 8.60152 19.0588 12.5 19.0588C16.3985 19.0588 19.5588 15.8985 19.5588 12C19.5588 8.10152 16.3985 4.94117 12.5 4.94117ZM4.5 12C4.5 7.58172 8.08172 4 12.5 4C16.9183 4 20.5 7.58172 20.5 12C20.5 16.4183 16.9183 20 12.5 20C8.08172 20 4.5 16.4183 4.5 12Z" fill="white"/>
<path fill-rule="evenodd" clip-rule="evenodd" d="M12.5 8.51831C12.7599 8.51831 12.9706 8.729 12.9706 8.9889V15.0124C12.9706 15.2723 12.7599 15.483 12.5 15.483C12.2401 15.483 12.0294 15.2723 12.0294 15.0124V8.9889C12.0294 8.729 12.2401 8.51831 12.5 8.51831Z" fill="white"/>
<path fill-rule="evenodd" clip-rule="evenodd" d="M9.0177 11.9999C9.0177 11.74 9.22839 11.5293 9.48829 11.5293H15.5118C15.7717 11.5293 15.9824 11.74 15.9824 11.9999C15.9824 12.2598 15.7717 12.4705 15.5118 12.4705H9.48829C9.22839 12.4705 9.0177 12.2598 9.0177 11.9999Z" fill="white"/>
</svg>
