<svg width="33" height="38" viewBox="0 0 33 38" fill="none" xmlns="http://www.w3.org/2000/svg">
<path d="M14.0018 10.3485C13.2589 10.3485 12.6546 10.9529 12.6546 11.6957V17.5441C12.6546 19.8652 10.7992 21.7819 8.51861 21.8167C7.38871 21.8317 6.31605 21.4047 5.50703 20.6078C4.69766 19.8107 4.25197 18.7482 4.25197 17.6158V15.2228C4.25197 14.9307 4.01527 14.694 3.72315 14.694C3.43103 14.694 3.19434 14.9307 3.19434 15.2228V17.6158C3.19434 19.0337 3.75206 20.3639 4.76485 21.3614C5.75769 22.3393 7.06436 22.8748 8.45233 22.8748C8.47976 22.8748 8.50726 22.8746 8.53469 22.8742C11.3896 22.8306 13.7122 20.4396 13.7122 17.5441V11.6957C13.7122 11.536 13.8422 11.4061 14.0018 11.4061H15.1853C15.345 11.4061 15.4749 11.5361 15.4749 11.6957V17.6159C15.4749 19.1528 14.9844 20.6139 14.0562 21.8411C13.8801 22.0741 13.9261 22.4057 14.1591 22.5819C14.392 22.7581 14.7237 22.712 14.8999 22.4791C15.968 21.0666 16.5325 19.385 16.5325 17.6159V11.6957C16.5325 10.9528 15.9282 10.3485 15.1853 10.3485H15.093V3.19486C15.093 2.59779 14.6072 2.11198 14.0102 2.11198H13.3996V1.91244C13.3995 1.37883 12.9654 0.944702 12.4318 0.944702H10.8262C9.89093 0.944702 9.13007 1.70564 9.13007 2.64087C9.13007 3.5761 9.89093 4.33696 10.8262 4.33696H12.4318C12.9654 4.33696 13.3996 3.90284 13.3996 3.36915V3.16961H14.0102C14.0241 3.16961 14.0354 3.18097 14.0354 3.19486V10.3485H14.0018ZM12.3419 3.27933H10.8262C10.4741 3.27933 10.1876 2.99285 10.1876 2.6408C10.1876 2.28874 10.4741 2.00234 10.8262 2.00234H12.3419V3.27933Z" fill="#328C4B"/>
<path d="M29.9947 15.6398V14.071C29.9947 13.3852 29.5132 12.8107 28.8707 12.6653V5.76061C28.8707 3.11476 26.7182 0.962188 24.0723 0.962188C21.4264 0.962188 19.2738 3.11476 19.2738 5.76061V30.8522C19.2738 33.6897 16.9653 35.9982 14.1279 35.9982C11.2905 35.9982 8.98201 33.6897 8.98201 30.8522V26.959H9.50378C9.9936 26.959 10.3921 26.5605 10.3921 26.0707V25.4596C11.3945 25.2126 12.3296 24.7783 13.1774 24.1653C13.414 23.9942 13.4672 23.6635 13.296 23.4269C13.1249 23.1902 12.7943 23.1371 12.5577 23.3083C11.7165 23.9165 10.7768 24.3222 9.7648 24.5142C9.5152 24.5616 9.33449 24.7798 9.33449 25.0338V25.9014H7.57176V25.0338C7.57176 24.7798 7.39105 24.5616 7.14144 24.5142C3.83288 23.8866 1.43148 20.9854 1.43148 17.6159V11.6957C1.43148 11.536 1.56143 11.4061 1.72107 11.4061H2.90456C3.06426 11.4061 3.19414 11.5361 3.19414 11.6957V12.9692C3.19414 13.2613 3.43084 13.4981 3.72296 13.4981C4.01507 13.4981 4.25177 13.2613 4.25177 12.9692V11.6957C4.25177 10.9528 3.64744 10.3485 2.90456 10.3485H2.84159V3.19486C2.84159 3.18097 2.85288 3.16961 2.86677 3.16961H3.47737V3.36915C3.47737 3.90277 3.9115 4.33696 4.44518 4.33696H6.05074C6.98604 4.33696 7.7469 3.57603 7.7469 2.6408C7.7469 1.70556 6.98604 0.944702 6.05081 0.944702H4.44518C3.91157 0.944702 3.47737 1.37883 3.47737 1.91251V2.11205H2.86677C2.2697 2.11205 1.78396 2.59786 1.78396 3.19493V10.3485H1.72099C0.978112 10.3485 0.373779 10.9529 0.373779 11.6957V17.6159C0.373779 21.3453 2.93072 24.576 6.51406 25.4596V26.0707C6.51406 26.5605 6.9125 26.959 7.4024 26.959H7.92431V30.8522C7.92431 34.2729 10.7072 37.0558 14.1278 37.0558C17.5484 37.0558 20.3313 34.2729 20.3313 30.8522V5.76061C20.3313 3.69794 22.0095 2.01982 24.0722 2.01982C26.1349 2.01982 27.813 3.69794 27.813 5.76061V12.6653C27.1705 12.8108 26.689 13.3852 26.689 14.071V15.6399C26.2339 15.8304 25.811 16.0991 25.4403 16.4406C25.2255 16.6385 25.2118 16.9731 25.4097 17.1879C25.6075 17.4026 25.9422 17.4163 26.1569 17.2185C26.7541 16.6683 27.53 16.3653 28.3418 16.3653C30.1207 16.3653 31.568 17.8126 31.568 19.5914C31.568 21.3703 30.1207 22.8176 28.3418 22.8176C26.5629 22.8176 25.1157 21.3703 25.1157 19.5914C25.1157 19.3608 25.1409 19.128 25.1908 18.8995C25.2531 18.6143 25.0722 18.3324 24.7869 18.2701C24.5011 18.2078 24.2197 18.3887 24.1574 18.674C24.0914 18.9765 24.058 19.2852 24.058 19.5914C24.058 21.9535 25.9797 23.8752 28.3417 23.8752C30.7039 23.8752 32.6256 21.9535 32.6256 19.5914C32.6257 17.815 31.5385 16.2879 29.9947 15.6398ZM4.53508 2.00234H6.05081C6.40286 2.00234 6.68934 2.28882 6.68934 2.64087C6.68934 2.99292 6.40286 3.27933 6.05081 3.27933H4.53508V2.00234ZM27.7466 15.3491V14.071C27.7466 13.859 27.9191 13.6865 28.1312 13.6865H28.5526C28.7647 13.6865 28.9371 13.859 28.9371 14.071V15.35C28.7424 15.3228 28.5439 15.3077 28.3419 15.3077C28.1413 15.3077 27.9426 15.3217 27.7466 15.3491Z" fill="#328C4B"/>
<path d="M30.235 19.5913C30.235 18.5476 29.3857 17.6984 28.3419 17.6984C27.2981 17.6984 26.449 18.5475 26.449 19.5913C26.449 20.6351 27.2981 21.4843 28.3419 21.4843C29.3857 21.4843 30.235 20.6351 30.235 19.5913ZM27.5067 19.5913C27.5067 19.1308 27.8814 18.756 28.342 18.756C28.8026 18.756 29.1774 19.1307 29.1774 19.5913C29.1774 20.052 28.8027 20.4266 28.342 20.4266C27.8814 20.4267 27.5067 20.052 27.5067 19.5913Z" fill="#328C4B"/>
</svg>
