<svg width="38" height="40" viewBox="0 0 38 40" fill="none" xmlns="http://www.w3.org/2000/svg">
<path d="M35.2834 33.257L37.2303 5.68285C37.3233 4.36474 36.3365 3.21798 35.0193 3.11344L23.131 2.17001C21.8218 2.06611 20.671 3.03062 20.5444 4.33779L17.8529 32.1261C17.7212 33.486 18.7464 34.6828 20.1104 34.7616L32.7432 35.4909C34.0586 35.5668 35.1906 34.5713 35.2834 33.257Z" fill="black" fill-opacity="0.15"/>
<path d="M29.8049 1.96668L6.95457 0.438305C6.20968 0.38896 5.56363 0.953798 5.51374 1.69846L5.335 4.37121H2.29796C1.55168 4.37121 0.944458 4.97843 0.944458 5.72472V38.6316C0.944458 39.3779 1.55168 39.9851 2.29796 39.9851H19.7884C19.94 39.9851 20.0902 39.9232 20.1977 39.8161L22.8381 37.1875C22.8649 37.1932 22.8923 37.1978 22.9205 37.1996L27.4282 37.5011C28.1476 37.5486 28.8207 36.9634 28.869 36.241L31.065 3.40759C31.1144 2.67066 30.5417 2.01595 29.8049 1.96668ZM20.3685 38.0011V33.9715C20.3685 33.8649 20.4553 33.7781 20.5619 33.7781H24.576L20.3685 38.0011ZM27.7114 36.1636C27.6925 36.2804 27.6239 36.3404 27.5057 36.3436L23.9262 36.1041L26.382 33.6592C26.4914 33.5504 26.5529 33.4025 26.5529 33.2482V5.72479C26.5529 4.97851 25.9457 4.37129 25.1994 4.37129H19.1671C18.4171 4.37129 18.4171 5.53143 19.1671 5.53143H25.1994C25.306 5.53143 25.3927 5.61821 25.3927 5.72479V32.618H20.5619C19.8156 32.618 19.2084 33.2252 19.2084 33.9715V38.825H2.29796C2.19139 38.825 2.10461 38.7382 2.10461 38.6316V5.72479C2.10461 5.61821 2.19139 5.53143 2.29796 5.53143H16.0781C16.8281 5.53143 16.8281 4.37129 16.0781 4.37129H6.4977L6.67126 1.77596C6.69013 1.65909 6.75874 1.59915 6.87707 1.59598L29.7274 3.12428C29.8442 3.14315 29.9042 3.21176 29.9074 3.33009L27.7114 36.1636Z" fill="white"/>
<path d="M21.6589 18.744H5.83813C5.51778 18.744 5.25806 19.0037 5.25806 19.3241C5.25806 19.6444 5.51778 19.9042 5.83813 19.9042H21.6589C21.9794 19.9042 22.239 19.6444 22.239 19.3241C22.239 19.0037 21.9794 18.744 21.6589 18.744Z" fill="white"/>
<path d="M21.6589 22.7881H5.83813C5.51778 22.7881 5.25806 23.0478 5.25806 23.3682C5.25806 23.6885 5.51778 23.9482 5.83813 23.9482H21.6589C21.9794 23.9482 22.239 23.6885 22.239 23.3682C22.239 23.0478 21.9794 22.7881 21.6589 22.7881Z" fill="white"/>
<path d="M5.25806 15.2801C5.25806 15.6005 5.51778 15.8602 5.83813 15.8602H21.6589C21.9794 15.8602 22.239 15.6005 22.239 15.2801C22.239 14.9598 21.9794 14.7001 21.6589 14.7001H5.83813C5.51778 14.7001 5.25806 14.9598 5.25806 15.2801Z" fill="white"/>
<path d="M8.04529 11.2362C8.04529 11.5566 8.30501 11.8163 8.62536 11.8163H18.8723C19.1927 11.8163 19.4524 11.5566 19.4524 11.2362C19.4524 10.9158 19.1927 10.6561 18.8723 10.6561H8.62536C8.30501 10.6561 8.04529 10.9158 8.04529 11.2362Z" fill="white"/>
<path d="M16.0074 34.3474C14.9641 34.3502 13.9208 34.3524 12.8776 34.3541C12.5269 34.3546 12.1763 34.3551 11.8257 34.3553C11.1903 34.3558 10.7622 34.2282 10.6199 33.5293C10.4996 32.9384 9.66364 33.0179 9.50121 33.5293C9.0998 34.7929 8.43589 34.2978 8.06402 33.4479C7.69301 32.6 7.59787 31.651 7.43584 30.7486C7.31673 30.0856 6.3139 30.2714 6.29642 30.9028C6.27337 31.7344 6.19572 32.5527 5.98465 33.3591C5.76693 34.1912 5.44062 34.9908 5.1167 35.7858C4.83432 36.4789 5.95719 36.7771 6.2354 36.0943C6.52242 35.3898 6.80982 34.6815 7.02376 33.9508C7.4213 34.9068 8.24377 35.988 9.41575 35.3508C9.63378 35.2322 9.83743 35.0637 10.0162 34.8671C10.6256 35.5714 11.5328 35.5159 12.3816 35.5149C13.5903 35.5134 14.7989 35.5107 16.0076 35.5076C16.7538 35.5056 16.7552 34.3455 16.0074 34.3474Z" fill="white"/>
</svg>
