<svg width="39" height="38" viewBox="0 0 39 38" fill="none" xmlns="http://www.w3.org/2000/svg">
<rect x="20.8055" y="17.2965" width="18.0556" height="20.463" rx="2.40741" fill="black" fill-opacity="0.15"/>
<path d="M32.9272 3.54788H29.5652V2.56047C29.5652 1.39377 28.616 0.44458 27.4493 0.44458C26.2826 0.44458 25.3335 1.39377 25.3335 2.56047V3.54788H13.4845V2.56047C13.4845 1.39377 12.5353 0.44458 11.3686 0.44458C10.2019 0.44458 9.25273 1.39377 9.25273 2.56047V3.57397C9.19278 3.5574 9.12994 3.54788 9.0647 3.54788H6.25452C4.31003 3.54788 2.72805 5.12986 2.72805 7.07435V19.0879C2.72805 19.4774 3.04388 19.7932 3.43334 19.7932C3.82281 19.7932 4.13864 19.4774 4.13864 19.0879V10.8124H29.5652C29.9547 10.8124 30.2705 10.4967 30.2705 10.1071C30.2705 9.71759 29.9547 9.40183 29.5652 9.40183H4.13864V7.07435C4.13864 5.90766 5.08783 4.95847 6.25452 4.95847H9.0647C9.12994 4.95847 9.19278 4.94888 9.25273 4.93237V5.84009C9.25273 7.00679 10.2019 7.95597 11.3686 7.95597C12.5353 7.95597 13.4845 7.00679 13.4845 5.84009V4.95847H25.3335V5.84009C25.3335 7.00679 26.2826 7.95597 27.4493 7.95597C28.616 7.95597 29.5652 7.00679 29.5652 5.84009V4.95847H32.9272C34.0939 4.95847 35.043 5.90766 35.043 7.07435V33.8751C35.043 34.5754 34.4734 35.1451 33.7731 35.1451C33.0728 35.1451 32.5031 34.5754 32.5031 33.8751V32.0506C32.5031 31.6611 32.1873 31.3453 31.7978 31.3453H23.5938C23.2043 31.3453 22.8885 31.6611 22.8885 32.0506C22.8885 32.4402 23.2043 32.7559 23.5938 32.7559H31.0926V33.8751C31.0926 34.3344 31.2088 34.7668 31.4131 35.1451H3.02265C2.32265 35.1451 1.75312 34.5756 1.75312 33.8756V32.7559H17.5394C17.9289 32.7559 18.2447 32.4402 18.2447 32.0506C18.2447 31.6611 17.9289 31.3453 17.5394 31.3453H10.4924C11.7248 30.2839 12.5074 28.7139 12.5074 26.9637C12.5074 23.7747 9.91296 21.1803 6.72397 21.1803C3.53498 21.1803 0.940549 23.7747 0.940549 26.9637C0.940549 28.7139 1.72314 30.2839 2.95558 31.3453H1.04782C0.65836 31.3453 0.342529 31.6611 0.342529 32.0506V33.8756C0.342529 35.3534 1.54485 36.5557 3.02265 36.5557H33.7731C35.2511 36.5557 36.4536 35.3532 36.4536 33.8751V7.07435C36.4536 5.12986 34.8717 3.54788 32.9272 3.54788ZM12.0739 5.84009C12.0739 6.22899 11.7575 6.54538 11.3686 6.54538C10.9797 6.54538 10.6633 6.22899 10.6633 5.84009V2.56047C10.6633 2.17157 10.9797 1.85517 11.3686 1.85517C11.7575 1.85517 12.0739 2.17157 12.0739 2.56047V5.84009ZM28.1546 5.84009C28.1546 6.22899 27.8382 6.54538 27.4493 6.54538C27.0604 6.54538 26.7441 6.22899 26.7441 5.84009V2.56047C26.7441 2.17157 27.0604 1.85517 27.4493 1.85517C27.8382 1.85517 28.1546 2.17157 28.1546 2.56047V5.84009ZM2.35114 26.9637C2.35114 24.5525 4.31278 22.5908 6.72397 22.5908C9.13516 22.5908 11.0968 24.5525 11.0968 26.9637C11.0968 29.3749 9.13516 31.3365 6.72397 31.3365C4.31278 31.3365 2.35114 29.3749 2.35114 26.9637Z" fill="white"/>
<path d="M33.3721 9.60863C33.241 9.47744 33.059 9.40198 32.8735 9.40198C32.6879 9.40198 32.5061 9.47744 32.3749 9.60863C32.2437 9.73981 32.1682 9.92178 32.1682 10.1073C32.1682 10.2928 32.2436 10.4747 32.3749 10.6059C32.5061 10.7371 32.6879 10.8126 32.8735 10.8126C33.059 10.8126 33.241 10.7371 33.3721 10.6059C33.5033 10.4747 33.5788 10.2928 33.5788 10.1073C33.5788 9.92178 33.5033 9.73981 33.3721 9.60863Z" fill="white"/>
<path d="M21.4061 31.5516C21.275 31.4205 21.0931 31.3457 20.9076 31.3457C20.7221 31.3457 20.5401 31.4205 20.4089 31.5516C20.2777 31.6835 20.2023 31.8648 20.2023 32.0503C20.2023 32.2365 20.2777 32.4178 20.4089 32.5496C20.5401 32.6808 20.7221 32.7556 20.9076 32.7556C21.0931 32.7556 21.275 32.6808 21.4061 32.5496C21.5373 32.4178 21.6129 32.2358 21.6129 32.0503C21.6129 31.8648 21.5374 31.6835 21.4061 31.5516Z" fill="white"/>
<path d="M16.2995 21.8856C14.8217 21.8856 13.6194 23.0879 13.6194 24.5657C13.6194 26.0435 14.8217 27.2459 16.2995 27.2459C17.7773 27.2459 18.9796 26.0435 18.9796 24.5657C18.9796 23.0879 17.7773 21.8856 16.2995 21.8856ZM16.2995 25.8353C15.5995 25.8353 15.03 25.2657 15.03 24.5657C15.03 23.8657 15.5995 23.2962 16.2995 23.2962C16.9995 23.2962 17.569 23.8657 17.569 24.5657C17.569 25.2657 16.9995 25.8353 16.2995 25.8353Z" fill="white"/>
<path d="M22.8823 21.8856C21.4045 21.8856 20.2021 23.0879 20.2021 24.5657C20.2021 26.0435 21.4045 27.2459 22.8823 27.2459C24.3601 27.2459 25.5624 26.0435 25.5624 24.5657C25.5624 23.0879 24.3601 21.8856 22.8823 21.8856ZM22.8823 25.8353C22.1823 25.8353 21.6127 25.2657 21.6127 24.5657C21.6127 23.8657 22.1823 23.2962 22.8823 23.2962C23.5823 23.2962 24.1518 23.8657 24.1518 24.5657C24.1518 25.2657 23.5823 25.8353 22.8823 25.8353Z" fill="white"/>
<path d="M29.465 21.8856C27.9872 21.8856 26.7849 23.0879 26.7849 24.5657C26.7849 26.0435 27.9872 27.2459 29.465 27.2459C30.9428 27.2459 32.1452 26.0435 32.1452 24.5657C32.1452 23.0879 30.9428 21.8856 29.465 21.8856ZM29.465 25.8353C28.765 25.8353 28.1955 25.2657 28.1955 24.5657C28.1955 23.8657 28.765 23.2962 29.465 23.2962C30.165 23.2962 30.7346 23.8657 30.7346 24.5657C30.7346 25.2657 30.165 25.8353 29.465 25.8353Z" fill="white"/>
<path d="M9.71674 14.5505C8.23894 14.5505 7.03662 15.7529 7.03662 17.2307C7.03662 18.7085 8.23894 19.9108 9.71674 19.9108C11.1945 19.9108 12.3969 18.7085 12.3969 17.2307C12.3969 15.7529 11.1945 14.5505 9.71674 14.5505ZM9.71674 18.5002C9.01674 18.5002 8.44721 17.9307 8.44721 17.2307C8.44721 16.5307 9.01674 15.9611 9.71674 15.9611C10.4167 15.9611 10.9863 16.5307 10.9863 17.2307C10.9863 17.9307 10.4167 18.5002 9.71674 18.5002Z" fill="white"/>
<path d="M22.8823 14.5505C21.4045 14.5505 20.2021 15.7529 20.2021 17.2307C20.2021 18.7085 21.4045 19.9108 22.8823 19.9108C24.3601 19.9108 25.5624 18.7085 25.5624 17.2307C25.5624 15.7529 24.3601 14.5505 22.8823 14.5505ZM22.8823 18.5002C22.1823 18.5002 21.6127 17.9307 21.6127 17.2307C21.6127 16.5307 22.1823 15.9611 22.8823 15.9611C23.5823 15.9611 24.1518 16.5307 24.1518 17.2307C24.1518 17.9307 23.5823 18.5002 22.8823 18.5002Z" fill="white"/>
<path d="M29.465 14.5505C27.9872 14.5505 26.7849 15.7529 26.7849 17.2307C26.7849 18.7085 27.9872 19.9108 29.465 19.9108C30.9428 19.9108 32.1452 18.7085 32.1452 17.2307C32.1452 15.7529 30.9428 14.5505 29.465 14.5505ZM29.465 18.5002C28.765 18.5002 28.1955 17.9307 28.1955 17.2307C28.1955 16.5307 28.765 15.9611 29.465 15.9611C30.165 15.9611 30.7346 16.5307 30.7346 17.2307C30.7346 17.9307 30.165 18.5002 29.465 18.5002Z" fill="white"/>
<path d="M16.2995 14.5505C14.8217 14.5505 13.6194 15.7529 13.6194 17.2307C13.6194 18.7085 14.8217 19.9108 16.2995 19.9108C17.7773 19.9108 18.9796 18.7085 18.9796 17.2307C18.9796 15.7529 17.7773 14.5505 16.2995 14.5505ZM16.2995 18.5002C15.5995 18.5002 15.03 17.9307 15.03 17.2307C15.03 16.5307 15.5995 15.9611 16.2995 15.9611C16.9995 15.9611 17.569 16.5307 17.569 17.2307C17.569 17.9307 16.9995 18.5002 16.2995 18.5002Z" fill="white"/>
<path d="M9.23659 25.2449C8.9611 24.9695 8.51465 24.9695 8.23909 25.2449L5.94223 27.5418L5.15731 26.7569C4.88182 26.4815 4.43537 26.4815 4.15981 26.7569C3.88439 27.0323 3.88439 27.4789 4.15981 27.7544L5.44352 29.038C5.57583 29.1702 5.75518 29.2446 5.94223 29.2446C6.12927 29.2446 6.30863 29.1702 6.44094 29.038L9.23659 26.2423C9.512 25.9669 9.512 25.5203 9.23659 25.2449Z" fill="white"/>
</svg>
