<svg width="37" height="38" viewBox="0 0 37 38" fill="none" xmlns="http://www.w3.org/2000/svg">
<path d="M33.4272 4.04788H30.0653V3.06047C30.0653 1.89377 29.1161 0.94458 27.9494 0.94458C26.7827 0.94458 25.8335 1.89377 25.8335 3.06047V4.04788H13.9845V3.06047C13.9845 1.89377 13.0353 0.94458 11.8686 0.94458C10.702 0.94458 9.75276 1.89377 9.75276 3.06047V4.07397C9.69281 4.0574 9.62997 4.04788 9.56473 4.04788H6.75456C4.81006 4.04788 3.22808 5.62986 3.22808 7.57435V19.5879C3.22808 19.9774 3.54391 20.2932 3.93337 20.2932C4.32284 20.2932 4.63867 19.9774 4.63867 19.5879V11.3124H30.0653C30.4547 11.3124 30.7706 10.9967 30.7706 10.6071C30.7706 10.2176 30.4547 9.90183 30.0653 9.90183H4.63867V7.57435C4.63867 6.40766 5.58786 5.45847 6.75456 5.45847H9.56473C9.62997 5.45847 9.69281 5.44888 9.75276 5.43237V6.34009C9.75276 7.50679 10.702 8.45597 11.8686 8.45597C13.0353 8.45597 13.9845 7.50679 13.9845 6.34009V5.45847H25.8335V6.34009C25.8335 7.50679 26.7827 8.45597 27.9494 8.45597C29.1161 8.45597 30.0653 7.50679 30.0653 6.34009V5.45847H33.4272C34.5939 5.45847 35.5431 6.40766 35.5431 7.57435V34.3751C35.5431 35.0754 34.9734 35.6451 34.2731 35.6451C33.5728 35.6451 33.0032 35.0754 33.0032 34.3751V32.5506C33.0032 32.1611 32.6873 31.8453 32.2979 31.8453H24.0938C23.7043 31.8453 23.3885 32.1611 23.3885 32.5506C23.3885 32.9402 23.7043 33.2559 24.0938 33.2559H31.5926V34.3751C31.5926 34.8344 31.7088 35.2668 31.9131 35.6451H3.52268C2.82268 35.6451 2.25315 35.0756 2.25315 34.3756V33.2559H18.0394C18.4289 33.2559 18.7447 32.9402 18.7447 32.5506C18.7447 32.1611 18.4289 31.8453 18.0394 31.8453H10.9924C12.2248 30.7839 13.0074 29.2139 13.0074 27.4637C13.0074 24.2747 10.413 21.6803 7.224 21.6803C4.03501 21.6803 1.44058 24.2747 1.44058 27.4637C1.44058 29.2139 2.22317 30.7839 3.45561 31.8453H1.54785C1.15839 31.8453 0.84256 32.1611 0.84256 32.5506V34.3756C0.84256 35.8534 2.04488 37.0557 3.52268 37.0557H34.2731C35.7511 37.0557 36.9537 35.8532 36.9537 34.3751V7.57435C36.9537 5.62986 35.3717 4.04788 33.4272 4.04788ZM12.5739 6.34009C12.5739 6.72899 12.2575 7.04538 11.8686 7.04538C11.4797 7.04538 11.1634 6.72899 11.1634 6.34009V3.06047C11.1634 2.67157 11.4797 2.35517 11.8686 2.35517C12.2575 2.35517 12.5739 2.67157 12.5739 3.06047V6.34009ZM28.6547 6.34009C28.6547 6.72899 28.3383 7.04538 27.9494 7.04538C27.5605 7.04538 27.2441 6.72899 27.2441 6.34009V3.06047C27.2441 2.67157 27.5605 2.35517 27.9494 2.35517C28.3383 2.35517 28.6547 2.67157 28.6547 3.06047V6.34009ZM2.85117 27.4637C2.85117 25.0525 4.81281 23.0908 7.224 23.0908C9.63519 23.0908 11.5968 25.0525 11.5968 27.4637C11.5968 29.8749 9.63519 31.8365 7.224 31.8365C4.81281 31.8365 2.85117 29.8749 2.85117 27.4637Z" fill="white"/>
</svg>
