<svg width="39" height="39" viewBox="0 0 39 39" fill="none" xmlns="http://www.w3.org/2000/svg">
<path d="M3.82603 11.7457C3.82603 11.7457 3.21376 15.754 5.23693 19.1782M19.675 3.89464C27.9236 -2.18149 38 4.37806 38 14.1226C38 23.8672 19.7103 37.5 19.7103 37.5C19.7103 37.5 1 23.8672 1 14.1226C1 4.37806 12.3989 -2.29791 19.675 3.89464ZM6.33565 20.6634C6.68101 21.0398 7.07111 21.3979 7.51123 21.7299L6.33565 20.6634ZM26.0536 19.7681H21.3213V24.4613H17.6213V19.7681H12.889V16.0996H17.6213V11.4064H21.3208V16.0996H26.0531L26.0536 19.7681Z" stroke="white" stroke-width="1.5" stroke-miterlimit="10" stroke-linecap="round" stroke-linejoin="round"/>
</svg>
