<svg width="37" height="38" viewBox="0 0 37 38" fill="none" xmlns="http://www.w3.org/2000/svg">
<g clip-path="url(#clip0)">
<rect x="28.6111" y="28.389" width="7.94445" height="8.66667" rx="2.40741" fill="black" fill-opacity="0.15"/>
<rect x="24.4922" y="10.3335" width="7.94444" height="17.667" rx="2.40741" transform="rotate(45 24.4922 10.3335)" fill="black" fill-opacity="0.15"/>
<path d="M11.4906 21.8859C10.7868 21.1819 10.7868 20.0364 11.4906 19.3325C11.7889 19.0342 23.5571 7.26596 24.224 6.59903L23.4892 5.86424C23.1089 5.48372 23.3835 4.83681 23.9148 4.83681C24.0689 4.83681 24.2229 4.89556 24.3404 5.01308L29.2815 9.95413L34.0387 5.19694L32.0857 3.24401L28.9236 6.40606C28.6884 6.64101 28.3074 6.64093 28.0724 6.40606C27.8374 6.17096 27.8374 5.78992 28.0724 5.55489L31.2345 2.39284L30.8866 2.04489C30.5062 1.66437 30.7809 1.01746 31.3122 1.01746C31.4663 1.01746 31.6203 1.07621 31.7378 1.19372L36.3792 5.83513C36.6142 6.07023 36.6142 6.4512 36.3792 6.6863C36.1441 6.92125 35.7631 6.92125 35.528 6.6863L34.89 6.04826L30.1328 10.8054L32.2697 12.9422C32.5047 13.1773 32.5047 13.5583 32.2697 13.7934C32.0346 14.0284 31.6536 14.0284 31.4185 13.7934L25.0753 7.45035L21.3395 11.1862L22.286 12.1327C22.521 12.3678 22.521 12.7488 22.286 12.9839C22.0509 13.2188 21.6699 13.2188 21.4348 12.9839L20.4883 12.0374L16.3666 16.1591L18.0654 17.8579C18.3005 18.093 18.3005 18.4739 18.0654 18.709C17.8303 18.944 17.4494 18.944 17.2143 18.709L15.5155 17.0102L12.342 20.1837C12.1074 20.4183 12.1074 20.8001 12.342 21.0348L16.2481 24.9408C16.4826 25.1755 16.8645 25.1755 17.0993 24.9408L27.9906 14.0493C28.2257 13.8143 28.6067 13.8143 28.8418 14.0493C29.0768 14.2844 29.0768 14.6653 28.8418 14.9004L17.9503 25.792C17.2463 26.4958 16.1008 26.496 15.3968 25.792L11.4906 21.8859ZM0.620603 36.6621C0.855702 36.897 1.23667 36.897 1.47177 36.6621L11.0651 27.0687L11.2847 27.2883C12.0702 28.0736 13.3479 28.0734 14.1332 27.2883C14.3682 27.0532 14.3682 26.6722 14.1332 26.4371C13.8981 26.2022 13.5171 26.2022 13.282 26.4371C12.9662 26.7532 12.452 26.7532 12.136 26.4371L10.8456 25.1467C10.5296 24.8309 10.5296 24.3166 10.8456 24.0006C11.0806 23.7656 11.0806 23.3845 10.8455 23.1495C10.6104 22.9144 10.2292 22.9146 9.99445 23.1496C9.20918 23.9349 9.20918 25.2127 9.99445 25.998L10.214 26.2176L0.620603 35.8109C0.38558 36.046 0.38558 36.427 0.620603 36.6621ZM35.0508 23.7426C35.0508 24.0749 34.7813 24.3444 34.449 24.3444C34.1166 24.3444 33.8471 24.0749 33.8471 23.7426C33.8471 23.1937 33.4197 22.8187 32.9443 22.8187H28.28C27.7822 22.8187 27.3772 23.2237 27.3772 23.7215V24.0132C27.3772 24.511 27.7822 24.9159 28.28 24.9159H33.4828C33.8152 24.9159 34.0847 25.1854 34.0847 25.5178C34.0847 25.8502 33.8152 26.1196 33.4828 26.1196H33.3601V27.0535C34.3023 27.1129 35.0508 27.898 35.0508 28.855V34.3502C35.0508 34.6826 34.7813 34.952 34.449 34.952C34.1166 34.952 33.8471 34.6826 33.8471 34.3502V28.855C33.8471 28.5231 33.5771 28.2531 33.2453 28.2531H27.9791C27.6472 28.2531 27.3772 28.5231 27.3772 28.855V35.1777C27.3772 35.5096 27.6472 35.7796 27.9791 35.7796H33.4828C33.8152 35.7796 34.0847 36.0491 34.0847 36.3814C34.0847 36.7138 33.8152 36.9833 33.4828 36.9833H27.9791C26.9835 36.9833 26.1735 36.1733 26.1735 35.1777V28.855C26.1735 27.898 26.922 27.1129 27.8643 27.0535V26.0783C26.9012 25.8846 26.1735 25.0324 26.1735 24.0132V23.7215C26.1735 22.56 27.1185 21.615 28.28 21.615H32.9443C34.0745 21.615 35.0508 22.5206 35.0508 23.7426ZM32.1564 26.1196H29.068V27.0494H32.1564V26.1196Z" fill="#74561C"/>
</g>
<defs>
<clipPath id="clip0">
<rect width="36.1111" height="36.1111" fill="white" transform="translate(0.444336 0.944458)"/>
</clipPath>
</defs>
</svg>
