<svg width="36" height="37" viewBox="0 0 36 37" fill="none" xmlns="http://www.w3.org/2000/svg">
<path d="M19.8085 15.4906C20.0068 15.7297 19.9714 16.0883 19.7235 16.2852L13.4481 21.3477C13.3418 21.432 13.2144 21.4742 13.0939 21.4742C12.9523 21.4742 12.8177 21.425 12.7044 21.3266L9.51709 18.3734C9.29043 18.1625 9.27627 17.8039 9.48876 17.5789C9.70124 17.3539 10.0625 17.3398 10.2891 17.5508L13.1152 20.1664L19.0082 15.4133C19.249 15.2094 19.6102 15.2445 19.8085 15.4906ZM28.7684 16.7563C28.5842 18.3664 28.3576 19.9414 28.0955 21.4531C27.5005 24.807 25.0923 28.3508 20.9418 31.9859C17.882 34.6648 15.0417 36.3523 14.9213 36.4227C14.8292 36.4789 14.7301 36.5 14.6309 36.5C14.5318 36.5 14.4326 36.4719 14.3405 36.4227C14.2201 36.3523 11.3799 34.6648 8.32008 31.9859C4.17659 28.3508 1.76841 24.807 1.17345 21.4531C-0.20063 13.7117 0.0118568 6.99688 0.0118568 6.92656C0.0189397 6.70859 0.153514 6.51172 0.358918 6.42734L14.4114 0.542188C14.553 0.485938 14.7088 0.485938 14.8505 0.542188L22.2804 3.65703C23.7253 2.08906 25.8006 1.10469 28.1026 1.10469C32.4585 1.10469 36 4.62031 36 8.94453C36.0071 13.0508 32.8127 16.4258 28.7684 16.7563ZM26.9764 21.2563C27.2314 19.8148 27.4509 18.3102 27.628 16.7703C27.1322 16.7422 26.6435 16.6648 26.176 16.5453C26.006 18.057 25.7865 19.5547 25.5315 21.0031C25.2057 22.8172 24.1503 24.8 22.3796 26.8813C20.5097 29.082 17.7403 31.4937 14.9567 33.343C14.8647 33.4062 14.7513 33.4414 14.638 33.4414C14.5247 33.4414 14.4184 33.4062 14.3264 33.35C11.5428 31.5078 8.7663 29.0891 6.9035 26.8883C5.13278 24.807 4.07035 22.8242 3.74454 21.0102C3.18499 17.8742 2.83084 14.5695 2.67502 11.1734C2.63252 10.2312 2.61127 9.42266 2.60419 8.68437C2.60419 8.45937 2.73877 8.24844 2.95125 8.15703L14.4184 3.35469C14.5601 3.29844 14.7159 3.29844 14.8576 3.35469L20.8497 5.86484C21.048 5.41484 21.2818 4.97891 21.558 4.57812L14.638 1.68125L1.13804 7.32734C1.11679 8.80391 1.11679 14.6469 2.29255 21.2563C3.49664 28.0133 12.8602 34.1656 14.638 35.2766C16.4087 34.1656 25.7723 28.0133 26.9764 21.2563ZM20.2122 8.94453C20.2122 8.24844 20.3043 7.57344 20.4743 6.92656L14.6309 4.47969L3.73745 9.04297C3.74454 9.66875 3.77287 10.3508 3.8012 11.1172C3.94994 14.4641 4.30408 17.7195 4.84947 20.8062C5.13986 22.4234 6.1173 24.2305 7.75345 26.157C9.48167 28.1961 12.0315 30.4391 14.6238 32.1969C17.2162 30.4391 19.7589 28.1961 21.4942 26.157C23.1304 24.2234 24.1078 22.4234 24.3982 20.8062C24.6674 19.3016 24.8869 17.7477 25.064 16.1797C22.2167 14.9984 20.2122 12.2 20.2122 8.94453ZM34.8738 8.94453C34.8738 5.23906 31.8423 2.22969 28.1097 2.22969C24.377 2.22969 21.3455 5.23906 21.3455 8.94453C21.3455 12.65 24.377 15.6594 28.1097 15.6594C31.8353 15.6594 34.8738 12.65 34.8738 8.94453ZM32.926 7.29922V10.5898C32.926 10.8992 32.671 11.1523 32.3594 11.1523H30.3337V13.1633C30.3337 13.4727 30.0787 13.7258 29.767 13.7258H26.4523C26.1406 13.7258 25.8856 13.4727 25.8856 13.1633V11.1523H23.8599C23.5483 11.1523 23.2933 10.8992 23.2933 10.5898V7.29922C23.2933 6.98984 23.5483 6.73672 23.8599 6.73672H25.8856V4.72578C25.8856 4.41641 26.1406 4.16328 26.4523 4.16328H29.767C30.0787 4.16328 30.3337 4.41641 30.3337 4.72578V6.73672H32.3594C32.671 6.73672 32.926 6.98984 32.926 7.29922ZM31.7928 7.86172H29.767C29.4554 7.86172 29.2004 7.60859 29.2004 7.29922V5.28828H27.0189V7.29922C27.0189 7.60859 26.7639 7.86172 26.4523 7.86172H24.4266V10.0273H26.4523C26.7639 10.0273 27.0189 10.2805 27.0189 10.5898V12.6008H29.2004V10.5898C29.2004 10.2805 29.4554 10.0273 29.767 10.0273H31.7928V7.86172Z" fill="#328C4B"/>
</svg>
