<svg width="34" height="37" viewBox="0 0 34 37" fill="none" xmlns="http://www.w3.org/2000/svg">
<path d="M30.6638 0.5H5.34061C4.60645 0.500878 3.90261 0.792912 3.38347 1.31204C2.86434 1.83118 2.57231 2.53502 2.57143 3.26918V6.92857H1.92857C1.41708 6.92857 0.926543 7.13176 0.564866 7.49344C0.203188 7.85511 0 8.34565 0 8.85714C0 9.36863 0.203188 9.85917 0.564866 10.2208C0.926543 10.5825 1.41708 10.7857 1.92857 10.7857H2.57143V16.5714H1.92857C1.41708 16.5714 0.926543 16.7746 0.564866 17.1363C0.203188 17.498 0 17.9885 0 18.5C0 19.0115 0.203188 19.502 0.564866 19.8637C0.926543 20.2254 1.41708 20.4286 1.92857 20.4286H2.57143V26.2143H1.92857C1.41708 26.2143 0.926543 26.4175 0.564866 26.7792C0.203188 27.1408 0 27.6314 0 28.1429C0 28.6543 0.203188 29.1449 0.564866 29.5066C0.926543 29.8682 1.41708 30.0714 1.92857 30.0714H2.57143V33.7333C2.57226 34.4668 2.86402 35.1701 3.38269 35.6887C3.90136 36.2074 4.60459 36.4992 5.33811 36.5H30.6638C31.4017 36.494 32.1072 36.1957 32.6255 35.6703C33.1438 35.145 33.4326 34.4355 33.4286 33.6975V3.31814C33.433 2.5786 33.1448 1.86732 32.6268 1.3394C32.1089 0.811483 31.4033 0.509751 30.6638 0.5ZM1.28571 8.85714C1.28583 8.68668 1.3536 8.52324 1.47413 8.4027C1.59466 8.28217 1.75811 8.2144 1.92857 8.21429H5.78571C5.95621 8.21429 6.11972 8.28201 6.24028 8.40257C6.36084 8.52313 6.42857 8.68665 6.42857 8.85714C6.42857 9.02764 6.36084 9.19115 6.24028 9.31171C6.11972 9.43227 5.95621 9.5 5.78571 9.5H1.92857C1.75811 9.49988 1.59466 9.43212 1.47413 9.31158C1.3536 9.19105 1.28583 9.0276 1.28571 8.85714ZM1.28571 18.5C1.28583 18.3295 1.3536 18.1661 1.47413 18.0456C1.59466 17.925 1.75811 17.8573 1.92857 17.8571H5.78571C5.95621 17.8571 6.11972 17.9249 6.24028 18.0454C6.36084 18.166 6.42857 18.3295 6.42857 18.5C6.42857 18.6705 6.36084 18.834 6.24028 18.9546C6.11972 19.0751 5.95621 19.1429 5.78571 19.1429H1.92857C1.75811 19.1427 1.59466 19.075 1.47413 18.9544C1.3536 18.8339 1.28583 18.6705 1.28571 18.5ZM1.28571 28.1429C1.28583 27.9724 1.3536 27.8089 1.47413 27.6884C1.59466 27.5679 1.75811 27.5001 1.92857 27.5H5.78571C5.95621 27.5 6.11972 27.5677 6.24028 27.6883C6.36084 27.8088 6.42857 27.9724 6.42857 28.1429C6.42857 28.3134 6.36084 28.4769 6.24028 28.5974C6.11972 28.718 5.95621 28.7857 5.78571 28.7857H1.92857C1.75811 28.7856 1.59466 28.7178 1.47413 28.5973C1.3536 28.4768 1.28583 28.3133 1.28571 28.1429ZM32.1429 33.6975C32.1474 34.0947 31.9942 34.4774 31.717 34.7618C31.4397 35.0461 31.0609 35.2089 30.6638 35.2143H5.33811C4.94545 35.2139 4.56899 35.0577 4.29134 34.7801C4.01368 34.5024 3.85753 34.126 3.85714 33.7333V30.0714H5.78571C6.2972 30.0714 6.78774 29.8682 7.14942 29.5066C7.5111 29.1449 7.71429 28.6543 7.71429 28.1429C7.71429 27.6314 7.5111 27.1408 7.14942 26.7792C6.78774 26.4175 6.2972 26.2143 5.78571 26.2143H3.85714V20.4286H5.78571C6.2972 20.4286 6.78774 20.2254 7.14942 19.8637C7.5111 19.502 7.71429 19.0115 7.71429 18.5C7.71429 17.9885 7.5111 17.498 7.14942 17.1363C6.78774 16.7746 6.2972 16.5714 5.78571 16.5714H3.85714V10.7857H5.78571C6.2972 10.7857 6.78774 10.5825 7.14942 10.2208C7.5111 9.85917 7.71429 9.36863 7.71429 8.85714C7.71429 8.34565 7.5111 7.85511 7.14942 7.49344C6.78774 7.13176 6.2972 6.92857 5.78571 6.92857H3.85714V3.26918C3.85758 2.87588 4.01401 2.4988 4.29212 2.22069C4.57023 1.94258 4.94731 1.78615 5.34061 1.78571H30.6638C31.0628 1.79477 31.4421 1.96107 31.7191 2.24843C31.9961 2.53579 32.1484 2.92094 32.1429 3.32003V33.6975Z" fill="white"/>
<path d="M18 17.2143C19.3986 17.2143 20.7658 16.7995 21.9287 16.0225C23.0916 15.2455 23.9979 14.1411 24.5332 12.849C25.0684 11.5568 25.2084 10.135 24.9356 8.76328C24.6627 7.39155 23.9892 6.13155 23.0003 5.14259C22.0113 4.15363 20.7513 3.48014 19.3796 3.20729C18.0079 2.93444 16.586 3.07448 15.2939 3.60969C14.0018 4.14491 12.8974 5.05128 12.1203 6.21417C11.3433 7.37706 10.9286 8.74425 10.9286 10.1428C10.9308 12.0176 11.6766 13.815 13.0022 15.1406C14.3279 16.4663 16.1252 17.212 18 17.2143ZM18 4.35713C19.1443 4.35713 20.2629 4.69645 21.2144 5.3322C22.1658 5.96794 22.9074 6.87154 23.3453 7.92875C23.7832 8.98595 23.8978 10.1493 23.6746 11.2716C23.4513 12.3939 22.9003 13.4248 22.0911 14.234C21.282 15.0431 20.2511 15.5941 19.1288 15.8174C18.0064 16.0406 16.8431 15.9261 15.7859 15.4881C14.7287 15.0502 13.8251 14.3087 13.1894 13.3572C12.5536 12.4058 12.2143 11.2871 12.2143 10.1428C12.216 8.60889 12.8261 7.13824 13.9107 6.05357C14.9954 4.96891 16.4661 4.3588 18 4.35713Z" fill="white"/>
<path d="M16.0714 14.6429H19.9286V12.0715H22.5V8.21431H19.9286V5.64288H16.0714V8.21431H13.5V12.0715H16.0714V14.6429ZM14.7857 10.7857V9.50003H17.3571V6.9286H18.6429V9.50003H21.2143V10.7857H18.6429V13.3572H17.3571V10.7857H14.7857Z" fill="white"/>
<path d="M19.6244 27.169L21.493 24.5168C21.7826 24.1067 21.9883 23.6434 22.0984 23.1536C22.2084 22.6638 22.2205 22.157 22.1341 21.6625C22.0476 21.1679 21.8643 20.6953 21.5946 20.2719C21.3249 19.8484 20.9742 19.4825 20.5626 19.195C19.7316 18.6138 18.7043 18.3851 17.7052 18.559C16.7062 18.7328 15.8165 19.2951 15.2307 20.1229L13.3607 22.7772L13.3605 22.7771L10.6491 26.6255C10.247 27.1977 10.0097 27.8694 9.96318 28.5672C9.91663 29.2651 10.0626 29.9623 10.3851 30.5829C10.7076 31.2035 11.1944 31.7236 11.7922 32.0865C12.3901 32.4494 13.0761 32.6412 13.7755 32.641C14.3899 32.6423 14.9956 32.4957 15.5414 32.2136C16.0873 31.9314 16.5571 31.5221 16.9114 31.02L19.6247 27.1692L19.6244 27.169ZM16.2817 20.8637C16.6711 20.3139 17.2622 19.9405 17.926 19.8251C18.5897 19.7097 19.2722 19.8617 19.8243 20.2478C20.0974 20.4382 20.3301 20.6807 20.5091 20.9614C20.6881 21.2421 20.8098 21.5555 20.8672 21.8834C20.9246 22.2113 20.9166 22.5473 20.8436 22.8721C20.7707 23.1969 20.6342 23.5041 20.442 23.776L18.5725 26.4309L15.1291 24.0172L14.4135 23.5154L16.2817 20.8637ZM15.8604 30.2792C15.4715 30.8294 14.8804 31.2031 14.2166 31.3185C13.5528 31.4339 12.8703 31.2817 12.3184 30.8951C12.0455 30.7045 11.8129 30.4619 11.634 30.1811C11.4551 29.9004 11.3335 29.5871 11.276 29.2592C11.2185 28.9313 11.2264 28.5953 11.2992 28.2705C11.3719 27.9456 11.5082 27.6383 11.7 27.3663L13.6732 24.5664L14.0032 24.7978L17.8315 27.4821L15.8604 30.2792Z" fill="white"/>
<path d="M22.8328 26.2143C22.197 26.2143 21.5756 26.4028 21.047 26.756C20.5184 27.1092 20.1064 27.6112 19.8631 28.1985C19.6199 28.7859 19.5562 29.4321 19.6802 30.0557C19.8043 30.6792 20.1104 31.2519 20.5599 31.7014C21.0094 32.1509 21.5822 32.4571 22.2057 32.5811C22.8292 32.7051 23.4755 32.6415 24.0628 32.3982C24.6501 32.1549 25.1521 31.7429 25.5053 31.2143C25.8585 30.6858 26.047 30.0643 26.047 29.4286C26.0461 28.5764 25.7072 27.7593 25.1046 27.1567C24.502 26.5541 23.685 26.2152 22.8328 26.2143ZM22.8328 27.5C23.1193 27.5016 23.4019 27.5677 23.6594 27.6934L21.0975 30.2549C20.9718 29.9975 20.9057 29.715 20.9042 29.4286C20.9047 28.9173 21.1081 28.427 21.4697 28.0655C21.8312 27.7039 22.3214 27.5006 22.8328 27.5ZM22.8328 31.3572C22.5463 31.3556 22.2639 31.2896 22.0065 31.1639L24.5683 28.6026C24.6938 28.86 24.7598 29.1423 24.7613 29.4286C24.7608 29.9399 24.5574 30.4301 24.1958 30.7917C23.8343 31.1532 23.3441 31.3566 22.8328 31.3572Z" fill="white"/>
</svg>
