<svg width="36" height="35" viewBox="0 0 36 35" fill="none" xmlns="http://www.w3.org/2000/svg">
<path d="M35.2174 0.5H7.04348C6.61129 0.5 6.26087 0.850034 6.26087 1.28261V25.5435H0.782609C0.350416 25.5435 0 25.8935 0 26.3261V31.0217C0 33.1793 1.75552 34.9348 3.91304 34.9348H32.087C34.2445 34.9348 36 33.1793 36 31.0217V27.1087V26.3261V1.28261C36 0.850034 35.6496 0.5 35.2174 0.5ZM1.56522 31.0217V27.1087H28.1739V31.0217C28.1739 31.906 28.4799 32.7135 28.9765 33.3696H3.91304C2.61838 33.3696 1.56522 32.3164 1.56522 31.0217ZM34.4348 31.0217C34.4348 32.3164 33.3816 33.3696 32.087 33.3696C30.7923 33.3696 29.7391 32.3164 29.7391 31.0217V26.3261C29.7391 25.8935 29.3887 25.5435 28.9565 25.5435H7.82609V2.06522H34.4348V26.3261V27.1087V31.0217Z" fill="#328C4B"/>
<path d="M30.5218 5.19568H11.7392C11.307 5.19568 10.9565 5.54571 10.9565 5.97829C10.9565 6.41086 11.307 6.7609 11.7392 6.7609H30.5218C30.954 6.7609 31.3044 6.41086 31.3044 5.97829C31.3044 5.54571 30.954 5.19568 30.5218 5.19568Z" fill="#328C4B"/>
<path d="M30.5218 9.1087H11.7392C11.307 9.1087 10.9565 9.45874 10.9565 9.89131C10.9565 10.3239 11.307 10.6739 11.7392 10.6739H30.5218C30.954 10.6739 31.3044 10.3239 31.3044 9.89131C31.3044 9.45874 30.954 9.1087 30.5218 9.1087Z" fill="#328C4B"/>
<path d="M30.5218 13.0217H11.7392C11.307 13.0217 10.9565 13.3718 10.9565 13.8043C10.9565 14.2369 11.307 14.5869 11.7392 14.5869H30.5218C30.954 14.5869 31.3044 14.2369 31.3044 13.8043C31.3044 13.3718 30.954 13.0217 30.5218 13.0217Z" fill="#328C4B"/>
<path d="M30.5218 16.9348H11.7392C11.307 16.9348 10.9565 17.2848 10.9565 17.7174C10.9565 18.1499 11.307 18.5 11.7392 18.5H30.5218C30.954 18.5 31.3044 18.1499 31.3044 17.7174C31.3044 17.2848 30.954 16.9348 30.5218 16.9348Z" fill="#328C4B"/>
<path d="M30.5218 20.8478H11.7392C11.307 20.8478 10.9565 21.1979 10.9565 21.6304C10.9565 22.063 11.307 22.4131 11.7392 22.4131H30.5218C30.954 22.4131 31.3044 22.063 31.3044 21.6304C31.3044 21.1979 30.954 20.8478 30.5218 20.8478Z" fill="#328C4B"/>
</svg>
