<svg width="65" height="66" viewBox="0 0 65 66" fill="none" xmlns="http://www.w3.org/2000/svg">
<rect y="0.5" width="65" height="65" rx="6" fill="#6BE38D"/>
<path d="M45 25.1452C45 18.1774 40.5556 16 34.7778 16C29 16 25 19.4839 25 25.1452C25 30.4569 30.9993 38.7079 34.5546 42.3443C34.9228 42.7209 35.5215 42.7218 35.8938 42.349C39.2984 38.94 45 31.6617 45 25.1452Z" fill="black" fill-opacity="0.15"/>
<path d="M49.8152 47.98L45.9772 40.3677C45.9285 40.2719 45.8542 40.1914 45.7622 40.135C45.6703 40.0787 45.5645 40.0487 45.4565 40.0483H40.1909C40.0357 40.0483 39.8869 40.1095 39.7772 40.2184C39.6675 40.3273 39.6058 40.475 39.6058 40.629C39.6058 40.783 39.6675 40.9307 39.7772 41.0396C39.8869 41.1485 40.0357 41.2096 40.1909 41.2096H45.0996L48.7738 48.4967C48.8251 48.585 48.8521 48.6851 48.8521 48.787C48.8521 48.889 48.8251 48.9891 48.7738 49.0774C48.7211 49.161 48.6478 49.23 48.5607 49.2778C48.4737 49.3255 48.3759 49.3505 48.2765 49.3503H15.7586C15.6592 49.3505 15.5614 49.3255 15.4744 49.2778C15.3874 49.23 15.314 49.161 15.2613 49.0774C15.21 48.9891 15.183 48.889 15.183 48.787C15.183 48.6851 15.21 48.585 15.2613 48.4967L18.9063 41.2096H23.8091C23.9643 41.2096 24.1131 41.1485 24.2228 41.0396C24.3325 40.9307 24.3942 40.783 24.3942 40.629C24.3942 40.475 24.3325 40.3273 24.2228 40.2184C24.1131 40.1095 23.9643 40.0483 23.8091 40.0483H18.5435C18.4355 40.0487 18.3297 40.0787 18.2378 40.135C18.1458 40.1914 18.0715 40.2719 18.0228 40.3677L14.1848 47.98C14.0511 48.2458 13.9881 48.5412 14.0018 48.838C14.0156 49.1348 14.1056 49.4232 14.2633 49.6757C14.4211 49.9283 14.6412 50.1366 14.903 50.2808C15.1647 50.4251 15.4593 50.5005 15.7586 50.5H48.2414C48.5407 50.5005 48.8353 50.4251 49.097 50.2808C49.3588 50.1366 49.5789 49.9283 49.7367 49.6757C49.8944 49.4232 49.9844 49.1348 49.9981 48.838C50.0119 48.5412 49.9489 48.2458 49.8152 47.98Z" fill="#328C4B"/>
<path d="M26.7344 45.2742C26.5792 45.2742 26.4304 45.3354 26.3207 45.4443C26.211 45.5531 26.1493 45.7008 26.1493 45.8548C26.1493 46.0088 26.211 46.1565 26.3207 46.2654C26.4304 46.3743 26.5792 46.4355 26.7344 46.4355H37.2655C37.4207 46.4355 37.5695 46.3743 37.6792 46.2654C37.789 46.1565 37.8506 46.0088 37.8506 45.8548C37.8506 45.7008 37.789 45.5531 37.6792 45.4443C37.5695 45.3354 37.4207 45.2742 37.2655 45.2742H33.4041C36.1773 42.371 43.7012 33.8877 43.7012 26.1129C43.7012 23.033 42.4684 20.0792 40.274 17.9013C38.0796 15.7235 35.1033 14.5 32 14.5C28.8966 14.5 25.9203 15.7235 23.7259 17.9013C21.5315 20.0792 20.2987 23.033 20.2987 26.1129C20.2987 33.8877 27.8226 42.4 30.5958 45.2742H26.7344ZM32 15.6613C34.793 15.6613 37.4716 16.7624 39.4466 18.7225C41.4216 20.6826 42.5311 23.341 42.5311 26.1129C42.5311 33.9632 33.9775 43.0387 32 45.0361C30.0225 43.0445 21.4688 33.969 21.4688 26.1129C21.4688 23.341 22.5784 20.6826 24.5533 18.7225C26.5283 16.7624 29.2069 15.6613 32 15.6613Z" fill="#328C4B"/>
<path d="M24.3942 45.8549C24.4712 45.8553 24.5476 45.8407 24.6188 45.8118C24.6901 45.7829 24.755 45.7403 24.8096 45.6865C24.8645 45.6325 24.908 45.5683 24.9377 45.4976C24.9674 45.4268 24.9827 45.3509 24.9827 45.2743C24.9827 45.1976 24.9674 45.1217 24.9377 45.0509C24.908 44.9802 24.8645 44.916 24.8096 44.862L23.0544 43.1201C22.9998 43.0662 22.9349 43.0237 22.8637 42.9948C22.7924 42.9659 22.716 42.9512 22.639 42.9517H19.7137C19.5586 42.9517 19.4097 43.0128 19.3 43.1217C19.1903 43.2306 19.1287 43.3783 19.1287 43.5323C19.1287 43.6863 19.1903 43.834 19.3 43.9429C19.4097 44.0518 19.5586 44.113 19.7137 44.113H22.3992L23.9788 45.6865C24.0335 45.7403 24.0983 45.7829 24.1696 45.8118C24.2409 45.8407 24.3172 45.8553 24.3942 45.8549Z" fill="#328C4B"/>
<path d="M43.7012 42.9517H40.7759C40.6989 42.9512 40.6226 42.9659 40.5513 42.9948C40.48 43.0237 40.4152 43.0662 40.3605 43.1201L38.6053 44.862C38.5505 44.916 38.5069 44.9802 38.4772 45.0509C38.4475 45.1217 38.4323 45.1976 38.4323 45.2743C38.4323 45.3509 38.4475 45.4268 38.4772 45.4976C38.5069 45.5683 38.5505 45.6325 38.6053 45.6865C38.6597 45.7409 38.7244 45.7841 38.7957 45.8136C38.867 45.8431 38.9435 45.8583 39.0207 45.8583C39.0979 45.8583 39.1744 45.8431 39.2457 45.8136C39.317 45.7841 39.3817 45.7409 39.4361 45.6865L41.0158 44.113H43.7012C43.8564 44.113 44.0052 44.0518 44.1149 43.9429C44.2246 43.834 44.2863 43.6863 44.2863 43.5323C44.2863 43.3783 44.2246 43.2306 44.1149 43.1217C44.0052 43.0128 43.8564 42.9517 43.7012 42.9517Z" fill="#328C4B"/>
<path d="M18.5436 47.0161C18.3884 47.0161 18.2396 47.0773 18.1299 47.1862C18.0201 47.2951 17.9585 47.4428 17.9585 47.5968C17.9585 47.7508 18.0201 47.8984 18.1299 48.0073C18.2396 48.1162 18.3884 48.1774 18.5436 48.1774H23.2241C23.3792 48.1774 23.528 48.1162 23.6378 48.0073C23.7475 47.8984 23.8091 47.7508 23.8091 47.5968C23.8091 47.4428 23.7475 47.2951 23.6378 47.1862C23.528 47.0773 23.3792 47.0161 23.2241 47.0161H18.5436Z" fill="#328C4B"/>
<path d="M40.1909 47.5968C40.1909 47.7508 40.2526 47.8984 40.3623 48.0073C40.472 48.1162 40.6208 48.1774 40.776 48.1774H45.4565C45.6117 48.1774 45.7605 48.1162 45.8702 48.0073C45.9799 47.8984 46.0416 47.7508 46.0416 47.5968C46.0416 47.4428 45.9799 47.2951 45.8702 47.1862C45.7605 47.0773 45.6117 47.0161 45.4565 47.0161H40.776C40.6208 47.0161 40.472 47.0773 40.3623 47.1862C40.2526 47.2951 40.1909 47.4428 40.1909 47.5968Z" fill="#328C4B"/>
<path d="M38.4356 26.1129C38.4356 24.8497 38.0582 23.6148 37.351 22.5644C36.6438 21.5141 35.6387 20.6954 34.4627 20.212C33.2868 19.7286 31.9928 19.6021 30.7444 19.8486C29.496 20.095 28.3492 20.7033 27.4492 21.5966C26.5491 22.4898 25.9362 23.6279 25.6879 24.8669C25.4395 26.1058 25.567 27.3901 26.0541 28.5572C26.5412 29.7243 27.3661 30.7218 28.4244 31.4236C29.4828 32.1254 30.727 32.5 31.9999 32.5C33.7068 32.5 35.3437 31.8271 36.5506 30.6293C37.7576 29.4315 38.4356 27.8069 38.4356 26.1129ZM26.7343 26.1129C26.7343 25.0794 27.0432 24.069 27.6217 23.2096C28.2003 22.3502 29.0227 21.6804 29.9849 21.2849C30.947 20.8894 32.0057 20.7859 33.0272 20.9875C34.0486 21.1892 34.9868 21.6869 35.7232 22.4177C36.4596 23.1486 36.9611 24.0797 37.1643 25.0934C37.3675 26.1071 37.2632 27.1579 36.8647 28.1128C36.4661 29.0676 35.7912 29.8838 34.9253 30.458C34.0594 31.0322 33.0413 31.3387 31.9999 31.3387C30.6034 31.3387 29.2641 30.7882 28.2766 29.8081C27.2891 28.8281 26.7343 27.4989 26.7343 26.1129Z" fill="#328C4B"/>
</svg>
