<svg width="37" height="38" viewBox="0 0 37 38" fill="none" xmlns="http://www.w3.org/2000/svg">
<g clip-path="url(#clip0)">
<rect x="14.8887" y="2.38892" width="15.1667" height="6.5" rx="2.40741" fill="black" fill-opacity="0.15"/>
<rect x="14.8887" y="16.8334" width="15.1667" height="20.2222" rx="2.40741" fill="black" fill-opacity="0.15"/>
<path d="M26.4748 5.15754V3.35199C26.4748 2.6883 25.9348 2.14828 25.2711 2.14828H11.7294C11.0657 2.14828 10.5257 2.6883 10.5257 3.35199V5.90986C10.5257 6.57355 11.0657 7.11356 11.7294 7.11356H25.2711C25.6035 7.11356 25.8729 7.38304 25.8729 7.71541C25.8729 8.04779 25.6035 8.31727 25.2711 8.31727H24.5188V11.1008H25.2711C26.5986 11.1008 27.6785 12.1808 27.6785 13.5082V34.6483C27.6785 35.9757 26.5986 37.0557 25.2711 37.0557H11.7294C10.402 37.0557 9.32202 35.9757 9.32202 34.6483V18.5864C9.32202 18.254 9.5915 17.9845 9.92387 17.9845C10.2562 17.9845 10.5257 18.254 10.5257 18.5864V34.6483C10.5257 35.312 11.0657 35.852 11.7294 35.852H25.2711C25.9348 35.852 26.4748 35.312 26.4748 34.6483V13.5082C26.4748 12.8445 25.9348 12.3045 25.2711 12.3045H11.7294C11.0657 12.3045 10.5257 12.8445 10.5257 13.5082V14.7872H19.4783C21.1376 14.7872 22.4875 16.1371 22.4875 17.7964V30.2849C22.4875 31.9442 21.1376 33.2941 19.4783 33.2941H12.557C12.2246 33.2941 11.9551 33.0246 11.9551 32.6923C11.9551 32.3599 12.2246 32.0904 12.557 32.0904H19.4783C20.4738 32.0904 21.2838 31.2805 21.2838 30.2849V17.7964C21.2838 16.8008 20.4738 15.9909 19.4783 15.9909H9.92387C9.5915 15.9909 9.32202 15.7214 9.32202 15.389V13.5082C9.32202 12.1808 10.402 11.1008 11.7294 11.1008H12.4817V10.1981C12.4817 9.86568 12.7512 9.5962 13.0836 9.5962C13.416 9.5962 13.6854 9.86568 13.6854 10.1981V11.1008H23.3151V8.31727H11.7294C10.402 8.31727 9.32202 7.23732 9.32202 5.90986V3.35199C9.32202 2.02453 10.402 0.94458 11.7294 0.94458H25.2711C26.5986 0.94458 27.6785 2.02453 27.6785 3.35199V5.15754C27.6785 5.48992 27.409 5.75939 27.0767 5.75939C26.7443 5.75939 26.4748 5.48992 26.4748 5.15754Z" fill="#328C4B"/>
</g>
<defs>
<clipPath id="clip0">
<rect width="36.1111" height="36.1111" fill="white" transform="translate(0.444336 0.944458)"/>
</clipPath>
</defs>
</svg>
