<svg width="25" height="24" viewBox="0 0 25 24" fill="none" xmlns="http://www.w3.org/2000/svg">
<path fill-rule="evenodd" clip-rule="evenodd" d="M5.80509 6.25577C7.57767 4.58301 10.4105 4.57886 12.1482 6.25868L12.6765 6.76939L13.2079 6.25575C14.9804 4.58299 17.8133 4.57886 19.551 6.25868C21.1246 7.77991 21.3053 10.1113 20.0816 11.7914H21.1451C21.3411 11.7914 21.5 11.945 21.5 12.1344C21.5 12.3239 21.3411 12.4775 21.1451 12.4775H19.4642L12.717 19L5.799 12.3906C4.06862 10.6771 4.06437 7.93849 5.80204 6.25868L5.80509 6.25577ZM19.168 11.7914C20.5434 10.3756 20.5088 8.1549 19.0491 6.74383C17.5924 5.33563 15.2055 5.331 13.7052 6.7453L12.6765 7.73971L11.6464 6.74383C10.1896 5.33563 7.80273 5.331 6.30241 6.74529C5.01332 7.99286 4.8628 9.94511 5.86189 11.3824C5.87316 11.3814 5.88458 11.3809 5.89614 11.3809H10.171L11.2793 8.65036C11.3326 8.51903 11.4637 8.43264 11.6096 8.43261C11.7555 8.43258 11.8866 8.51892 11.94 8.65023L13.7342 13.0653L14.87 10.2915C14.9237 10.1604 15.0548 10.0744 15.2006 10.0747C15.3465 10.0749 15.4773 10.1614 15.5304 10.2927L16.1371 11.7914H19.168ZM6.46993 12.067L12.714 18.0325L18.4604 12.4775H15.8948C15.7488 12.4775 15.6176 12.3909 15.5644 12.2594L15.198 11.3545L14.0629 14.1267C14.0093 14.2577 13.8782 14.3436 13.7325 14.3435C13.5868 14.3433 13.4559 14.257 13.4027 14.1258L11.6099 9.71435L10.7433 11.8492C10.69 11.9806 10.5589 12.067 10.4129 12.067H6.46993Z" fill="#151515"/>
</svg>
