<svg width="37" height="38" viewBox="0 0 37 38" fill="none" xmlns="http://www.w3.org/2000/svg">
<g clip-path="url(#clip0)">
<rect x="11.5554" y="8.5835" width="9.02778" height="14.5833" rx="2.40741" fill="black" fill-opacity="0.15"/>
<path d="M23.3498 13.9537C23.3847 12.0436 21.9945 10.4628 20.1918 10.1716V8.61819C20.1918 7.29073 19.1118 6.21078 17.7844 6.21078H12.5934V3.35199C12.5934 2.68822 13.1334 2.14828 13.7971 2.14828H15.7531C16.4168 2.14828 16.9568 2.68822 16.9568 3.35199V4.33C16.9568 4.66237 17.2263 4.93185 17.5587 4.93185C17.891 4.93185 18.1605 4.66237 18.1605 4.33V3.35199C18.1605 2.02453 17.0806 0.94458 15.7531 0.94458H13.7971C12.4696 0.94458 11.3897 2.02453 11.3897 3.35199V6.24035C10.2403 6.42151 9.35844 7.4187 9.35844 8.61819V20.2038C9.35844 21.5313 10.4384 22.6112 11.7658 22.6112H17.7844C19.1118 22.6112 20.1918 21.5313 20.1918 20.2038C20.1918 19.8715 19.9223 19.602 19.5899 19.602C19.2575 19.602 18.9881 19.8715 18.9881 20.2038C18.9881 20.8676 18.4481 21.4075 17.7844 21.4075H11.7658C11.1022 21.4075 10.5621 20.8676 10.5621 20.2038V18.2478H14.0228C14.3552 18.2478 14.6246 17.9783 14.6246 17.646C14.6246 17.3136 14.3552 17.0441 14.0228 17.0441H10.5621V8.61819C10.5621 7.95442 11.1022 7.41449 11.7658 7.41449H17.7844C18.4481 7.41449 18.9881 7.95442 18.9881 8.61819V10.1716C17.1991 10.4605 15.8283 12.0151 15.8283 13.8844C15.8283 15.9585 17.5158 17.646 19.5899 17.646C21.217 17.646 22.6057 16.6074 23.129 15.1586C29.3167 17.5941 31.1405 25.3408 26.9648 30.3083C26.7509 30.5628 26.7838 30.9424 27.0382 31.1563C27.2927 31.3701 27.6723 31.3373 27.8862 31.0828C32.7314 25.3189 30.3236 16.5276 23.3498 13.9537ZM19.59 16.4423C18.1796 16.4423 17.0321 15.2948 17.0321 13.8844C17.0321 12.474 18.1796 11.3265 19.59 11.3265C21.0004 11.3265 22.1479 12.474 22.1479 13.8844C22.1479 15.2948 21.0004 16.4423 19.59 16.4423ZM22.3736 29.5325C19.0904 29.5325 17.3964 33.4602 19.619 35.852H7.77865V34.0464C7.77865 33.3827 8.31867 32.8427 8.98236 32.8427H17.0822C17.4146 32.8427 17.6841 32.5732 17.6841 32.2409C17.6841 31.9085 17.4146 31.639 17.0822 31.639H8.98236C7.6549 31.639 6.57495 32.719 6.57495 34.0464V36.4538C6.57495 36.7862 6.84443 37.0557 7.1768 37.0557H22.3736C24.4477 37.0557 26.1351 35.3682 26.1351 33.2941C26.1351 31.22 24.4477 29.5325 22.3736 29.5325ZM22.3736 35.852C20.9631 35.852 19.8157 34.7046 19.8157 33.2941C19.8157 31.8837 20.9631 30.7362 22.3736 30.7362C23.784 30.7362 24.9314 31.8837 24.9314 33.2941C24.9314 34.7046 23.7839 35.852 22.3736 35.852Z" fill="#74561C"/>
</g>
<defs>
<clipPath id="clip0">
<rect width="36.1111" height="36.1111" fill="white" transform="translate(0.444336 0.944458)"/>
</clipPath>
</defs>
</svg>
