<svg width="36" height="37" viewBox="0 0 36 37" fill="none" xmlns="http://www.w3.org/2000/svg">
<path d="M32.4 27.9099V19.9151C32.3989 19.3429 32.171 18.7945 31.7662 18.3899C31.3613 17.9853 30.8125 17.7575 30.24 17.7565H18.72V9.07406C19.788 8.89365 20.7493 8.31884 21.4133 7.46354C22.0772 6.60825 22.3955 5.5349 22.3049 4.45619C22.2143 3.37748 21.7215 2.37214 20.9242 1.6394C20.1269 0.906664 19.0832 0.5 18 0.5C16.9168 0.5 15.8731 0.906664 15.0758 1.6394C14.2785 2.37214 13.7857 3.37748 13.6951 4.45619C13.6046 5.5349 13.9228 6.60825 14.5867 7.46354C15.2507 8.31884 16.212 8.89365 17.28 9.07406V17.7725H5.76001C5.18746 17.7735 4.63867 18.0013 4.23382 18.4059C3.82897 18.8105 3.60106 19.3589 3.60001 19.9311V27.9259C2.53196 28.1064 1.57071 28.6812 0.906744 29.5365C0.242779 30.3917 -0.0754431 31.4651 0.0151406 32.5438C0.105724 33.6225 0.598503 34.6279 1.39582 35.3606C2.19314 36.0933 3.23681 36.5 4.32001 36.5C5.4032 36.5 6.44687 36.0933 7.24419 35.3606C8.04151 34.6279 8.53429 33.6225 8.62487 32.5438C8.71546 31.4651 8.39723 30.3917 7.73327 29.5365C7.0693 28.6812 6.10805 28.1064 5.04001 27.9259V19.9311C5.04001 19.7402 5.11586 19.5572 5.25089 19.4223C5.38592 19.2874 5.56905 19.2115 5.76001 19.2115H17.28V27.9099C16.212 28.0904 15.2507 28.6652 14.5867 29.5205C13.9228 30.3758 13.6046 31.4491 13.6951 32.5278C13.7857 33.6065 14.2785 34.6119 15.0758 35.3446C15.8731 36.0773 16.9168 36.484 18 36.484C19.0832 36.484 20.1269 36.0773 20.9242 35.3446C21.7215 34.6119 22.2143 33.6065 22.3049 32.5278C22.3955 31.4491 22.0772 30.3758 21.4133 29.5205C20.7493 28.6652 19.788 28.0904 18.72 27.9099V19.2115H30.24C30.431 19.2115 30.6141 19.2874 30.7491 19.4223C30.8841 19.5572 30.96 19.7402 30.96 19.9311V27.9259C29.892 28.1064 28.9307 28.6812 28.2667 29.5365C27.6028 30.3917 27.2845 31.4651 27.3751 32.5438C27.4657 33.6225 27.9585 34.6279 28.7558 35.3606C29.5531 36.0933 30.5968 36.5 31.68 36.5C32.7632 36.5 33.8069 36.0933 34.6042 35.3606C35.4015 34.6279 35.8943 33.6225 35.9849 32.5438C36.0754 31.4651 35.7572 30.3917 35.0933 29.5365C34.4293 28.6812 33.468 28.1064 32.4 27.9259V27.9099ZM7.20001 32.1632C7.20001 32.7325 7.0311 33.2889 6.71464 33.7622C6.39818 34.2355 5.94839 34.6044 5.42213 34.8223C4.89588 35.0401 4.31681 35.0971 3.75815 34.9861C3.19948 34.875 2.68631 34.6009 2.28354 34.1984C1.88076 33.7959 1.60647 33.283 1.49535 32.7247C1.38422 32.1664 1.44125 31.5877 1.65923 31.0618C1.87721 30.5359 2.24635 30.0864 2.71996 29.7701C3.19358 29.4539 3.7504 29.2851 4.32001 29.2851C5.0835 29.2861 5.81543 29.5897 6.3553 30.1292C6.89518 30.6688 7.19895 31.4002 7.20001 32.1632ZM20.88 32.1632C20.88 32.7325 20.7111 33.2889 20.3946 33.7622C20.0782 34.2355 19.6284 34.6044 19.1021 34.8223C18.5759 35.0401 17.9968 35.0971 17.4381 34.9861C16.8795 34.875 16.3663 34.6009 15.9635 34.1984C15.5608 33.7959 15.2865 33.283 15.1753 32.7247C15.0642 32.1664 15.1212 31.5877 15.3392 31.0618C15.5572 30.5359 15.9263 30.0864 16.4 29.7701C16.8736 29.4539 17.4304 29.2851 18 29.2851C18.7635 29.2861 19.4954 29.5897 20.0353 30.1292C20.5752 30.6688 20.8789 31.4002 20.88 32.1632ZM18 7.69895C17.4304 7.69895 16.8736 7.53015 16.4 7.21389C15.9263 6.89764 15.5572 6.44813 15.3392 5.92222C15.1212 5.39631 15.0642 4.81761 15.1753 4.2593C15.2865 3.70099 15.5608 3.18816 15.9635 2.78564C16.3663 2.38312 16.8795 2.10901 17.4381 1.99795C17.9968 1.8869 18.5759 1.9439 19.1021 2.16174C19.6284 2.37958 20.0782 2.74848 20.3946 3.22178C20.7111 3.69509 20.88 4.25155 20.88 4.8208C20.8789 5.58381 20.5752 6.31526 20.0353 6.85479C19.4954 7.39432 18.7635 7.69789 18 7.69895ZM31.68 35.0414C31.1104 35.0414 30.5536 34.8726 30.08 34.5563C29.6063 34.2401 29.2372 33.7905 29.0192 33.2646C28.8012 32.7387 28.7442 32.16 28.8553 31.6017C28.9665 31.0434 29.2408 30.5306 29.6435 30.1281C30.0463 29.7255 30.5595 29.4514 31.1181 29.3404C31.6768 29.2293 32.2559 29.2863 32.7821 29.5041C33.3084 29.722 33.7582 30.0909 34.0746 30.5642C34.3911 31.0375 34.56 31.594 34.56 32.1632C34.5589 32.9262 34.2552 33.6577 33.7153 34.1972C33.1754 34.7367 32.4435 35.0403 31.68 35.0414Z" fill="#74561C"/>
</svg>
