<svg width="45" height="56" viewBox="0 0 45 56" fill="none" xmlns="http://www.w3.org/2000/svg">
<g opacity="0.9">
<path d="M8.89828 22.5923H35.3239C38.1178 22.5923 39.9344 23.2678 41.0491 24.277C42.1567 25.2798 42.6437 26.6781 42.6437 28.286V47.7172C42.6437 49.1814 41.6457 50.5939 39.8458 51.6673C38.0562 52.7346 35.5516 53.4109 32.7583 53.4109H8.89828C6.10435 53.4109 4.28771 52.7353 3.17305 51.7261C2.06542 50.7233 1.57846 49.3251 1.57846 47.7172V28.286C1.57846 26.6781 2.06542 25.2798 3.17305 24.277C4.28771 23.2678 6.10435 22.5923 8.89828 22.5923Z" fill="#33BCBF" stroke="#015355"/>
<path d="M7.26556 22.4745L7.265 22.4745C4.08801 22.4781 1.51348 25.0528 1.51011 28.2298V28.2303L1.51011 47.8711L1.51011 47.8717C1.51394 51.0483 4.08837 53.6225 7.26502 53.626H7.26556H36.9568H36.9574C40.134 53.6225 42.7085 51.0483 42.7123 47.8717V47.8711V28.2303V28.2298C42.7089 25.0528 40.1345 22.4781 36.9574 22.4745H36.9568L7.26556 22.4745ZM36.9563 54.6361H7.26615C3.53136 54.6318 0.504805 51.6054 0.5 47.8708V28.2306C0.504288 24.4957 3.53088 21.469 7.26586 21.4644H36.9565C40.6916 21.469 43.7182 24.4959 43.7224 28.2309V47.8705C43.7178 51.6053 40.6911 54.6318 36.9563 54.6361Z" fill="#015355" stroke="#015355"/>
<path d="M7.03531 22.4747H7.03511C6.90124 22.4748 6.77281 22.4216 6.67812 22.3269C6.58343 22.2322 6.53025 22.1038 6.5303 21.9699V21.9697V15.4368C6.5302 7.7226 13.4729 1.36353 22.1111 1.36353C30.7492 1.36353 37.692 7.7226 37.692 15.4367V21.9696V21.9698C37.692 22.1037 37.6388 22.2321 37.5441 22.3268L37.8977 22.6804L37.5441 22.3268C37.4494 22.4215 37.3209 22.4747 37.1868 22.4747H7.03531ZM7.54031 20.9646V21.4646H8.04031H36.1818H36.6818V20.9646V15.4368C36.6818 8.18151 30.0912 2.37363 22.1111 2.37363C14.1309 2.37363 7.54031 8.18151 7.54031 15.4367V20.9646Z" fill="#015355" stroke="#015355"/>
<path opacity="0.15" d="M38.925 53.6805H13.4588C19.542 51.7321 24.7184 47.3504 28.8643 42.3174C33.9663 36.1239 37.5637 28.8783 39.4262 23.7416C39.6052 23.8147 39.8068 23.9478 40.0297 24.1558C40.3938 24.4955 40.759 24.9837 41.1055 25.554C41.7784 26.6615 42.332 27.9963 42.644 28.9154V49.5499C42.5993 49.7584 42.4534 50.0567 42.1892 50.4318C41.9181 50.8167 41.5559 51.2364 41.1521 51.6567C40.4017 52.4376 39.5375 53.1899 38.925 53.6805Z" fill="#015355" stroke="#015355"/>
<path fill-rule="evenodd" clip-rule="evenodd" d="M24.2519 39.5946C25.3293 38.8733 26.0387 37.645 26.0387 36.2511C26.0387 34.0306 24.2386 32.2305 22.0181 32.2305C19.7976 32.2305 17.9975 34.0306 17.9975 36.2511C17.9975 37.8298 18.9073 39.196 20.2313 39.8538V42.5613C20.2313 43.6716 21.1313 44.5716 22.2416 44.5716C23.3518 44.5716 24.2519 43.6716 24.2519 42.5613V39.5946Z" fill="white"/>
<path d="M24.2519 39.5946L23.5565 38.5559L23.0019 38.9271V39.5946H24.2519ZM20.2313 39.8538H21.4813V39.0792L20.7875 38.7344L20.2313 39.8538ZM24.7887 36.2511C24.7887 37.2105 24.3022 38.0567 23.5565 38.5559L24.9473 40.6333C26.3565 39.6899 27.2887 38.0796 27.2887 36.2511H24.7887ZM22.0181 33.4805C23.5483 33.4805 24.7887 34.7209 24.7887 36.2511H27.2887C27.2887 33.3402 24.929 30.9805 22.0181 30.9805V33.4805ZM19.2475 36.2511C19.2475 34.7209 20.4879 33.4805 22.0181 33.4805V30.9805C19.1072 30.9805 16.7475 33.3402 16.7475 36.2511H19.2475ZM20.7875 38.7344C19.8722 38.2796 19.2475 37.3371 19.2475 36.2511H16.7475C16.7475 38.3224 17.9425 40.1123 19.675 40.9733L20.7875 38.7344ZM21.4813 42.5613V39.8538H18.9813V42.5613H21.4813ZM22.2416 43.3216C21.8217 43.3216 21.4813 42.9812 21.4813 42.5613H18.9813C18.9813 44.3619 20.441 45.8216 22.2416 45.8216V43.3216ZM23.0019 42.5613C23.0019 42.9812 22.6615 43.3216 22.2416 43.3216V45.8216C24.0422 45.8216 25.5019 44.3619 25.5019 42.5613H23.0019ZM23.0019 39.5946V42.5613H25.5019V39.5946H23.0019Z" fill="#015355"/>
</g>
</svg>
