<svg width="65" height="66" viewBox="0 0 65 66" fill="none" xmlns="http://www.w3.org/2000/svg">
<rect y="0.5" width="65" height="65" rx="6" fill="#A56BD2"/>
<rect x="35" y="31.5" width="17" height="19" rx="1" fill="black" fill-opacity="0.15"/>
<path d="M30.7277 15.6306H31.7656V14.5344L32.8035 14.586V15.6302H33.8932V16.674H32.8035V17.7706H31.7656V16.6744H30.7277V15.6306Z" fill="white"/>
<path d="M31.7652 17.771H32.8031V16.6744H33.8928V15.6306H32.8031V14.586L31.7652 14.5344V15.6306H30.7277V16.6744H31.7652V17.771Z" fill="white"/>
<path d="M41.7382 40.0612H44.9107V40.6998H41.7382V40.0612ZM41.7382 41.9763H44.9107V42.6145H41.7382V41.9763ZM41.7382 43.891H44.9107V44.5292H41.7382V43.891ZM35.9357 40.6994H37.2969V39.3308C37.2969 38.9781 37.5807 38.6921 37.9313 38.6921C38.2819 38.6921 38.5666 38.9777 38.5666 39.3308V40.6994H39.9274C40.2776 40.6994 40.5622 40.9849 40.5622 41.338C40.5622 41.6912 40.278 41.9763 39.9274 41.9763H38.5666V43.3465C38.5666 43.6992 38.2819 43.9852 37.9313 43.9852C37.5807 43.9852 37.2969 43.6996 37.2969 43.3465V41.9763H35.9357C35.5855 41.9763 35.3013 41.6912 35.3013 41.338C35.3013 40.9849 35.5851 40.6994 35.9357 40.6994ZM36.0277 50.2736H35.3929V49.635H36.0277V50.2736ZM36.0277 48.359H35.3929V47.7207H36.0277V48.359ZM36.0277 46.4443H35.3929V45.8056H36.0277V46.4443ZM44.9107 50.2736H37.2965V49.635H44.9103V50.2736H44.9107ZM44.9107 48.359H37.2965V47.7207H44.9103V48.359H44.9107ZM44.9107 46.4443H37.2965V45.8056H44.9103V46.4443H44.9107Z" fill="white"/>
<path d="M46.8139 34.832H44.3463V33.7509C44.3463 33.5739 44.2054 33.4314 44.0295 33.4314H41.6156C41.5378 33.0885 41.3342 32.7882 41.0541 32.5625V24.6617C41.0541 23.3566 40.7943 22.0514 40.2234 20.9028L41.2618 14.1686C35.1905 12.1851 30.7276 11.7148 23.3069 14.1686L24.2927 20.9028C23.7218 22.0514 23.4625 23.3566 23.4625 24.6617V34.0582C23.3586 34.0582 19.7264 34.7369 19 38.6523V44.7605H20.0379V38.7568C20.7123 35.6246 23.5146 35.1027 23.5146 35.1027C24.5525 34.7898 25.6422 34.5284 26.6797 34.3715C28.1847 35.834 30.1567 36.6172 32.2322 36.6172C32.2456 36.6172 32.2587 36.6156 32.2721 36.6156V52.8273C32.2721 53.1796 32.5563 53.4655 32.9065 53.4655H46.8139C47.1628 53.4655 47.4483 53.18 47.4483 52.8273V35.4706C47.4483 35.1171 47.1632 34.832 46.8139 34.832ZM43.6048 34.408V36.1084H36.1156V34.408H43.6048ZM40.9458 33.4314H38.7738C38.9326 33.0566 39.3573 32.7862 39.8606 32.7862C40.3639 32.7862 40.7878 33.0566 40.9458 33.4314ZM40.12 14.8994L39.3935 19.8066C37.0587 19.1278 34.6709 18.7628 32.2843 18.7628C29.8974 18.7628 27.5104 19.0758 25.1751 19.8066L24.4487 14.8994C30.1567 13.1249 34.4636 13.1249 40.12 14.8994ZM24.4487 33.8496V24.7137C24.4487 23.3566 24.8119 22.0514 25.4866 20.8508C29.9491 19.5456 34.5679 19.5456 39.0303 20.9024C39.7051 22.051 40.0166 23.4086 40.0166 24.7662V32.1594C39.9644 32.1553 39.9139 32.1472 39.861 32.1472C38.9949 32.1472 38.2713 32.6994 38.1052 33.431H37.9578C37.6088 33.3646 37.3706 33.3273 37.3706 33.3273C36.4882 33.2229 35.8656 32.4917 35.7618 31.6044C37.0595 30.5606 37.9415 28.9421 37.9415 27.1151V22.4173H36.0737L34.3089 20.6423L32.5445 22.4173H26.5241V27.1155C26.5241 28.8905 27.3023 30.4565 28.5996 31.5532C28.5479 32.4405 27.8732 33.1713 26.9912 33.3282C26.9912 33.3278 25.3307 33.5883 24.4487 33.8496ZM32.2843 31.8137C29.6897 31.8137 27.6142 29.6733 27.6142 27.1155V23.4614H33.0108L34.3598 22.1043L35.7088 23.4614H36.9545V27.1155C36.9027 29.7257 34.8273 31.8137 32.2843 31.8137ZM32.2725 35.4702V35.623C32.2591 35.623 32.2461 35.6246 32.2326 35.6246C30.6238 35.6246 29.1192 35.1027 27.9257 34.111C28.756 33.7452 29.3265 33.0148 29.5863 32.1795C30.3648 32.5969 31.2989 32.8583 32.2847 32.8583C33.2188 32.8583 34.1012 32.6498 34.8794 32.232C35.0174 32.7047 35.2613 33.1156 35.5822 33.4539C35.4609 33.4986 35.3737 33.6129 35.3737 33.7513V34.8324H32.9073C32.5567 34.832 32.2725 35.1167 32.2725 35.4702ZM46.1795 52.1882H33.5413V36.1084H35.3733V36.6033C35.3733 36.7802 35.5158 36.922 35.6905 36.922H44.0295C44.2058 36.922 44.3463 36.7802 44.3463 36.6033V36.1084H46.1795V52.1882Z" fill="white"/>
<path d="M36.0281 45.8054H35.3933V46.4441H36.0281V45.8054Z" fill="white"/>
<path d="M36.0281 47.7206H35.3933V48.3588H36.0281V47.7206Z" fill="white"/>
<path d="M35.9357 41.9763H37.2969V43.3465C37.2969 43.6992 37.5803 43.9852 37.9313 43.9852C38.2815 43.9852 38.5666 43.6996 38.5666 43.3465V41.9763H39.9274C40.2776 41.9763 40.5622 41.6912 40.5622 41.338C40.5622 40.9849 40.278 40.6994 39.9274 40.6994H38.5666V39.3308C38.5666 38.9781 38.2819 38.6921 37.9313 38.6921C37.5807 38.6921 37.2969 38.9777 37.2969 39.3308V40.6994H35.9357C35.5855 40.6994 35.3013 40.9849 35.3013 41.338C35.3013 41.6912 35.5851 41.9763 35.9357 41.9763Z" fill="white"/>
<path d="M36.0281 49.6353H35.3933V50.2739H36.0281V49.6353Z" fill="white"/>
<path d="M44.9102 47.7206H37.2965V48.3588H44.9102V47.7206Z" fill="white"/>
<path d="M44.9102 49.6353H37.2965V50.2739H44.9102V49.6353Z" fill="white"/>
<path d="M44.9102 45.8054H37.2965V46.4441H44.9102V45.8054Z" fill="white"/>
<path d="M44.9106 40.061H41.7382V40.6997H44.9106V40.061Z" fill="white"/>
<path d="M44.9106 43.8909H41.7382V44.5291H44.9106V43.8909Z" fill="white"/>
<path d="M44.9106 41.9761H41.7382V42.6143H44.9106V41.9761Z" fill="white"/>
</svg>
