<svg width="37" height="38" viewBox="0 0 37 38" fill="none" xmlns="http://www.w3.org/2000/svg">
<g clip-path="url(#clip0)">
<rect x="14.1665" y="12.5002" width="15.8889" height="24.5556" rx="2.40741" fill="#0697FE" fill-opacity="0.15"/>
<path d="M30.3114 6.58694V34.6483C30.3114 35.9757 29.2315 37.0557 27.904 37.0557H9.09613C7.76867 37.0557 6.68872 35.9757 6.68872 34.6483V6.58694C6.68872 5.25948 7.76867 4.17953 9.09613 4.17953H14.3614C14.327 2.27091 11.933 1.42915 10.7082 2.88773C10.4945 3.14232 10.1148 3.17534 9.86025 2.96161C9.60575 2.74788 9.57264 2.36826 9.78638 2.11368C10.4103 1.37069 11.324 0.94458 12.2935 0.94458C14.098 0.94458 15.566 2.41265 15.566 4.21715V8.20442C15.566 9.26225 14.7055 10.1228 13.6476 10.1228C12.5898 10.1228 11.7292 9.26225 11.7292 8.20442V7.11356C11.7292 6.78119 11.9987 6.51171 12.3311 6.51171C12.6635 6.51171 12.9329 6.78119 12.9329 7.11356V8.20442C12.9329 8.59848 13.2536 8.91912 13.6476 8.91912C14.0417 8.91912 14.3623 8.59848 14.3623 8.20442V5.38324H9.09613C8.43244 5.38324 7.89242 5.92317 7.89242 6.58694V34.6483C7.89242 35.312 8.43244 35.852 9.09613 35.852H27.904C28.5677 35.852 29.1077 35.312 29.1077 34.6483V6.58694C29.1077 5.92317 28.5677 5.38324 27.904 5.38324H17.7728C17.4404 5.38324 17.1709 5.11376 17.1709 4.78139C17.1709 4.44901 17.4404 4.17953 17.7728 4.17953H27.904C29.2315 4.17953 30.3114 5.25948 30.3114 6.58694ZM25.4214 15.6147C25.7537 15.6147 26.0232 15.3452 26.0232 15.0129C26.0232 14.6805 25.7537 14.411 25.4214 14.411H23.4027C23.0703 14.411 22.8008 14.6805 22.8008 15.0129C22.8008 15.3452 23.0703 15.6147 23.4027 15.6147H25.4214ZM10.9769 15.0129C10.9769 15.3452 11.2464 15.6147 11.5788 15.6147H15.3226L17.0858 19.5473C17.2979 20.0204 17.9719 20.0205 18.1842 19.5473L22.0293 10.9709C22.1653 10.6676 22.0297 10.3115 21.7264 10.1755C21.4231 10.0395 21.067 10.1752 20.931 10.4784L17.6349 17.8299L16.2615 14.7666C16.1644 14.5503 15.9494 14.411 15.7123 14.411H11.5788C11.2464 14.411 10.9769 14.6805 10.9769 15.0129ZM11.5788 23.2131C11.2464 23.2131 10.9769 23.4826 10.9769 23.8149C10.9769 24.1473 11.2464 24.4168 11.5788 24.4168H16.9954C17.3278 24.4168 17.5973 24.1473 17.5973 23.8149C17.5973 23.4826 17.3278 23.2131 16.9954 23.2131H11.5788ZM26.0232 27.727C26.0232 27.3946 25.7537 27.1251 25.4214 27.1251H11.5788C11.2464 27.1251 10.9769 27.3946 10.9769 27.727C10.9769 28.0594 11.2464 28.3288 11.5788 28.3288H25.4214C25.7537 28.3288 26.0232 28.0594 26.0232 27.727ZM26.0232 31.639C26.0232 31.3067 25.7537 31.0372 25.4214 31.0372H24.7443C24.4119 31.0372 24.1424 31.3067 24.1424 31.639C24.1424 31.9714 24.4119 32.2409 24.7443 32.2409H25.4214C25.7537 32.2409 26.0232 31.9714 26.0232 31.639ZM22.1676 31.639C22.1676 31.3067 21.8981 31.0372 21.5657 31.0372H11.5788C11.2464 31.0372 10.9769 31.3067 10.9769 31.639C10.9769 31.9714 11.2464 32.2409 11.5788 32.2409H21.5657C21.8981 32.2409 22.1676 31.9714 22.1676 31.639Z" fill="white"/>
</g>
<defs>
<clipPath id="clip0">
<rect width="36.1111" height="36.1111" fill="white" transform="translate(0.444336 0.944458)"/>
</clipPath>
</defs>
</svg>
