<svg width="37" height="38" viewBox="0 0 37 38" fill="none" xmlns="http://www.w3.org/2000/svg">
<g clip-path="url(#clip0)">
<rect x="21.9644" y="13.9446" width="7.94445" height="17.667" rx="2.40741" transform="rotate(45 21.9644 13.9446)" fill="black" fill-opacity="0.15"/>
<path d="M25.5056 16.0423C26.2112 16.7478 26.2113 17.8898 25.5056 18.5954C24.8607 19.2403 13.3795 30.7215 12.774 31.327L13.5087 32.0617C13.889 32.4419 13.6144 33.0889 13.0831 33.0889C12.9292 33.0889 12.7751 33.0302 12.6576 32.9127L7.71727 27.9724L2.96068 32.7289L4.91349 34.6818L8.07517 31.5201C8.31016 31.2851 8.69115 31.2851 8.92614 31.5201C9.16121 31.7551 9.16121 32.136 8.92614 32.371L5.76446 35.5327L6.11243 35.8807C6.3475 36.1157 6.3475 36.4967 6.11243 36.7317C5.87737 36.9667 5.49645 36.9667 5.26146 36.7317L0.620635 32.0909C0.38557 31.8559 0.38557 31.4749 0.620635 31.2399C0.855625 31.005 1.23662 31.005 1.47161 31.2399L2.10963 31.878L6.86622 27.1214L4.72965 24.9848C4.49458 24.7498 4.49458 24.3688 4.72965 24.1338C4.96464 23.8988 5.34563 23.8988 5.58062 24.1338L11.9229 30.4761L15.6583 26.7406L14.712 25.7943C14.4769 25.5593 14.4769 25.1783 14.712 24.9433C14.947 24.7083 15.328 24.7083 15.563 24.9433L16.5093 25.8897L20.6304 21.7686L18.9319 20.07C18.6968 19.835 18.6968 19.454 18.9319 19.219C19.1669 18.984 19.5479 18.984 19.7828 19.219L21.4814 20.9176L24.6544 17.7446C24.8896 17.5094 24.8897 17.1287 24.6544 16.8936L20.7489 12.988C20.5143 12.7534 20.1325 12.7534 19.8979 12.988L9.00806 23.8778C8.77307 24.1128 8.39208 24.1128 8.15709 23.8778C7.92202 23.6428 7.92202 23.2618 8.15709 23.0268L19.047 12.1368C19.7509 11.433 20.8962 11.4329 21.6001 12.1368L25.5056 16.0423ZM26.7821 11.7113L36.3742 2.11926C36.6092 1.88427 36.6092 1.50327 36.3742 1.26828C36.1392 1.03329 35.7582 1.03329 35.5232 1.26828L25.9312 10.8603L25.7115 10.6406C24.9264 9.85549 23.6488 9.85549 22.8635 10.6406C22.6285 10.8757 22.6284 11.2566 22.8635 11.4917C23.0986 11.7268 23.4796 11.7268 23.7146 11.4917C24.0306 11.1758 24.5446 11.1757 24.8605 11.4917L26.1508 12.7819C26.4667 13.0978 26.4667 13.6119 26.1508 13.9279C25.7705 14.3081 26.0451 14.9552 26.5763 14.9552C26.7303 14.9552 26.8844 14.8964 27.0019 14.7789C27.7871 13.9938 27.7871 12.7161 27.0019 11.9309L26.7821 11.7113ZM35.9007 12.2388C35.6916 11.9804 35.3126 11.9404 35.0544 12.1496C34.796 12.3586 34.7562 12.7376 34.9652 12.9959C35.5185 13.6796 35.4668 14.6644 34.8448 15.2864C34.1764 15.9546 33.089 15.9547 32.4205 15.2864C31.7985 14.6644 31.7468 13.6796 32.3002 12.9959L34.1005 10.7712C34.3095 10.5128 34.2696 10.134 34.0112 9.92492C33.7528 9.71588 33.3739 9.75583 33.1649 10.0141L31.3647 12.2388C29.8114 14.1581 31.1993 16.9906 33.6327 16.9906C36.0702 16.9906 37.4506 14.1538 35.9007 12.2388Z" fill="white"/>
</g>
<defs>
<clipPath id="clip0">
<rect width="36.1111" height="36.1111" fill="white" transform="translate(0.444336 0.944458)"/>
</clipPath>
</defs>
</svg>
