<svg width="12" height="13" viewBox="0 0 12 13" fill="none" xmlns="http://www.w3.org/2000/svg">
<path d="M9.58527 3.84427C8.62761 2.88662 7.3543 2.3592 5.99996 2.3592H5.2566L6.44973 1.16314L5.78495 0.5L3.46121 2.82943L5.75462 5.16118L6.42407 4.50275L5.23928 3.29816H5.99996C8.27804 3.29816 10.1314 5.1515 10.1314 7.4296C10.1314 9.7077 8.27804 11.561 5.99996 11.561C3.72189 11.561 1.86852 9.70768 1.86852 7.42951V6.96003L0.929565 6.96012V7.4296C0.929565 8.78396 1.45698 10.0573 2.41466 11.0149C3.37232 11.9726 4.64563 12.5 5.99996 12.5C7.3543 12.5 8.62761 11.9726 9.58527 11.0149C10.5429 10.0572 11.0704 8.78394 11.0704 7.4296C11.0704 6.07527 10.5429 4.80195 9.58527 3.84427Z" fill="white"/>
</svg>
