<svg width="65" height="66" viewBox="0 0 65 66" fill="none" xmlns="http://www.w3.org/2000/svg">
<rect y="0.5" width="65" height="65" rx="6" fill="#A56BD2"/>
<rect x="34" y="32.5" width="20" height="17" rx="1" fill="black" fill-opacity="0.15"/>
<path d="M51.3793 36.3235H45.5375V33.7867C45.5375 33.4558 45.2819 33.1985 44.9533 33.1985H37.9432C37.6146 33.1985 37.359 33.4558 37.359 33.7867V36.3235H31.5172C31.1886 36.3235 30.933 36.5808 30.933 36.9117V51.9117C30.933 52.2426 31.1886 52.5 31.5172 52.5H51.4158C51.7444 52.5 52 52.2426 52 51.9117V36.875C51.9635 36.8382 52 36.3235 51.3793 36.3235ZM44.3692 34.375V36.3235H38.5274V34.375H44.3692ZM40.1704 47.7206H42.7262C43.0548 47.7206 43.3103 47.4632 43.3103 47.1323V46.25C45.1359 46.1029 48.3854 45.5882 50.8316 43.75V51.3603H32.1014V43.7132C34.5477 45.5514 37.7971 46.0661 39.6227 46.2132V47.0956C39.5862 47.4632 39.8783 47.7206 40.1704 47.7206ZM42.142 43.6029V46.5441H40.7545V43.6029H42.142ZM48.714 43.6397C47.1805 44.4117 45.355 44.8897 43.3103 45.0735V43.0147C43.3103 42.6838 43.0548 42.4264 42.7262 42.4264H40.1704C40.1339 42.4264 40.1339 42.4264 40.0973 42.4264C39.8053 42.4632 39.5862 42.7206 39.5862 43.0147V45.0367C37.5416 44.8529 35.716 44.375 34.1825 43.6029C33.0142 43.0147 32.3205 42.3897 32.0649 42.1323V37.4632H50.7951V42.1691C50.5761 42.4264 49.9189 43.0514 48.714 43.6397Z" fill="white"/>
<path d="M29.2901 52.4633H16.6572C16.2921 52.4633 16 52.1691 16 51.8015V18.1618C16 17.7941 16.2921 17.5 16.6572 17.5H37.8337C38.0162 17.5 38.1623 17.5735 38.3083 17.6838L44.4422 23.7132C44.5882 23.8235 44.6613 24.0074 44.6613 24.1912V30.3677C44.6613 30.7353 44.3692 31.0294 44.0041 31.0294C43.639 31.0294 43.3469 30.7353 43.3469 30.3677V24.4853L37.5781 18.8235H17.3509V51.1397H29.2901C29.6552 51.1397 29.9473 51.4338 29.9473 51.8015C29.9838 52.1691 29.6552 52.4633 29.2901 52.4633Z" fill="white"/>
<path d="M21.2941 29.0441H35.4239C35.862 29.0441 36.1906 28.7132 36.1906 28.2721C36.1906 27.8309 35.862 27.5 35.4239 27.5H21.2941C20.8559 27.5 20.5273 27.8309 20.5273 28.2721C20.5273 28.6765 20.8925 29.0441 21.2941 29.0441Z" fill="white"/>
<path d="M21.3671 24.7426H35.497C35.9351 24.7426 36.2637 24.4117 36.2637 23.9705C36.2637 23.5294 35.9351 23.1985 35.497 23.1985H21.3671C20.929 23.1985 20.6004 23.5294 20.6004 23.9705C20.6004 24.4117 20.929 24.7426 21.3671 24.7426Z" fill="white"/>
<path d="M21.3671 33.4191H29.6552C30.0933 33.4191 30.4219 33.0882 30.4219 32.6471C30.4219 32.2059 30.0568 31.875 29.6552 31.875H21.3671C20.929 31.875 20.6004 32.2059 20.6004 32.6471C20.6004 33.0882 20.929 33.4191 21.3671 33.4191Z" fill="white"/>
<path d="M26.5152 37.978H21.3306C20.8924 37.978 20.5638 37.6471 20.5638 37.2059C20.5638 36.7647 20.8924 36.4338 21.3306 36.4338H26.4787C26.9168 36.4338 27.2454 36.7647 27.2454 37.2059C27.2454 37.6471 26.9168 37.978 26.5152 37.978Z" fill="white"/>
</svg>
