<svg width="17" height="17" viewBox="0 0 17 17" fill="none" xmlns="http://www.w3.org/2000/svg">
<path fill-rule="evenodd" clip-rule="evenodd" d="M8.5 15.7448C12.5026 15.7448 15.7472 12.5006 15.7472 8.4988C15.7472 4.49704 12.5026 1.25277 8.5 1.25277C4.49736 1.25277 1.25277 4.49704 1.25277 8.4988C1.25277 12.5006 4.49736 15.7448 8.5 15.7448ZM8.5 16.4976C12.9183 16.4976 16.5 12.9164 16.5 8.4988C16.5 4.08119 12.9183 0.5 8.5 0.5C4.08172 0.5 0.5 4.08119 0.5 8.4988C0.5 12.9164 4.08172 16.4976 8.5 16.4976Z" fill="#151515"/>
<path fill-rule="evenodd" clip-rule="evenodd" d="M5.33181 10.0052C5.72122 9.61582 6.24935 9.39709 6.80002 9.39709H10.2C10.7507 9.39709 11.2788 9.61582 11.6682 10.0052C12.0576 10.3945 12.2764 10.9226 12.2764 11.4732V12.3231C12.2764 12.531 12.1079 12.6995 11.9 12.6995C11.6922 12.6995 11.5236 12.531 11.5236 12.3231V11.4732C11.5236 11.1223 11.3842 10.7857 11.136 10.5375C10.8878 10.2893 10.5511 10.1499 10.2 10.1499H6.80002C6.44896 10.1499 6.11228 10.2893 5.86406 10.5375C5.61584 10.7857 5.47641 11.1223 5.47641 11.4732V12.3231C5.47641 12.531 5.30789 12.6995 5.10002 12.6995C4.89215 12.6995 4.72363 12.531 4.72363 12.3231V11.4732C4.72363 10.9226 4.94241 10.3945 5.33181 10.0052Z" fill="#151515"/>
<path fill-rule="evenodd" clip-rule="evenodd" d="M8.50028 5.05037C7.76911 5.05037 7.17647 5.643 7.17647 6.37393C7.17647 7.10486 7.76911 7.69749 8.50028 7.69749C9.23145 7.69749 9.82409 7.10486 9.82409 6.37393C9.82409 5.643 9.23145 5.05037 8.50028 5.05037ZM6.42358 6.37393C6.42358 5.22709 7.35341 4.29749 8.50028 4.29749C9.64716 4.29749 10.577 5.22709 10.577 6.37393C10.577 7.52077 9.64716 8.45037 8.50028 8.45037C7.35341 8.45037 6.42358 7.52077 6.42358 6.37393Z" fill="#151515"/>
</svg>
