<svg width="17" height="17" viewBox="0 0 17 17" fill="none" xmlns="http://www.w3.org/2000/svg">
<mask id="path-1-outside-1" maskUnits="userSpaceOnUse" x="-0.5" y="-0.5" width="18" height="18" fill="black">
<rect fill="white" x="-0.5" y="-0.5" width="18" height="18"/>
<path d="M15.6763 6.72222H14.1794C13.9388 6.72222 13.7406 6.58978 13.6484 6.36756C13.5563 6.14533 13.6031 5.91126 13.7729 5.74118L14.8313 4.68311C14.9868 4.52756 15.0724 4.32044 15.0724 4.10059C15.0724 3.88044 14.9868 3.67363 14.8313 3.51778L13.4822 2.16874C13.1711 1.85763 12.6286 1.85704 12.3169 2.16874L11.2588 3.22681C11.0887 3.39659 10.8541 3.444 10.6324 3.35156C10.4102 3.25941 10.2778 3.06119 10.2778 2.82059V1.3237C10.2778 0.869481 9.9083 0.5 9.45407 0.5H7.54593C7.0917 0.5 6.72222 0.869481 6.72222 1.3237V2.82059C6.72222 3.06119 6.58978 3.25941 6.36756 3.35156C6.14593 3.4443 5.91126 3.39659 5.74118 3.22681L4.68311 2.16874C4.37141 1.85704 3.82889 1.85763 3.51778 2.16874L2.16874 3.51778C2.01319 3.67333 1.92756 3.88044 1.92756 4.10059C1.92756 4.32044 2.01319 4.52726 2.16874 4.68311L3.22711 5.74118C3.39689 5.91126 3.44341 6.14533 3.35156 6.36756C3.2597 6.58978 3.06119 6.72222 2.82059 6.72222H1.3237C0.869481 6.72222 0.5 7.0917 0.5 7.54593V9.45378C0.5 9.9083 0.869481 10.2778 1.3237 10.2778H2.82059C3.06119 10.2778 3.25941 10.4102 3.35156 10.6324C3.4437 10.8547 3.39689 11.0887 3.22711 11.2588L2.16874 12.3169C2.01319 12.4724 1.92756 12.6796 1.92756 12.8994C1.92756 13.1196 2.01319 13.3264 2.16874 13.4822L3.51778 14.8313C3.82919 15.1427 4.37141 15.1433 4.68311 14.8313L5.74118 13.7729C5.91126 13.6031 6.14504 13.5563 6.36756 13.6484C6.58978 13.7406 6.72222 13.9388 6.72222 14.1794V15.6763C6.72222 16.1305 7.0917 16.5 7.54593 16.5H9.45378C9.908 16.5 10.2775 16.1305 10.2775 15.6763V14.1794C10.2775 13.9388 10.4099 13.7406 10.6321 13.6484C10.8547 13.556 11.0884 13.6031 11.2585 13.7729L12.3166 14.8313C12.6283 15.143 13.1708 15.1424 13.4819 14.8313L14.831 13.4822C14.9865 13.3267 15.0721 13.1196 15.0721 12.8994C15.0721 12.6796 14.9865 12.4727 14.831 12.3169L13.7726 11.2588C13.6028 11.0887 13.5563 10.8547 13.6481 10.6324C13.74 10.4102 13.9388 10.2778 14.1794 10.2778H15.6763C16.1305 10.2778 16.5 9.9083 16.5 9.45407V7.54593C16.5 7.0917 16.1305 6.72222 15.6763 6.72222ZM15.9074 9.45407C15.9074 9.58148 15.8037 9.68519 15.6763 9.68519H14.1794C13.6982 9.68519 13.2849 9.96133 13.1009 10.4058C12.9166 10.8502 13.0135 11.3379 13.3539 11.6781L14.4123 12.7361C14.5027 12.8265 14.5027 12.9732 14.4123 13.0633L13.0633 14.4123C12.9732 14.5024 12.8265 14.503 12.7361 14.4123L11.6781 13.3539C11.3376 13.0135 10.8502 12.9172 10.4058 13.1009C9.96133 13.2849 9.68519 13.6982 9.68519 14.1794V15.6763C9.68519 15.8037 9.58148 15.9074 9.45407 15.9074H7.54593C7.41852 15.9074 7.31481 15.8037 7.31481 15.6763V14.1794C7.31481 13.6982 7.03867 13.2849 6.59422 13.1009C6.44519 13.039 6.2917 13.0087 6.14 13.0087C5.83956 13.0087 5.5483 13.1273 5.32193 13.3536L4.26385 14.412C4.17318 14.5027 4.02652 14.5021 3.93674 14.412L2.5877 13.063C2.49733 12.9726 2.49733 12.8259 2.5877 12.7359L3.64607 11.6778C3.98622 11.3376 4.08341 10.8499 3.89911 10.4055C3.71511 9.96133 3.30178 9.68519 2.82059 9.68519H1.3237C1.1963 9.68519 1.09259 9.58148 1.09259 9.45407V7.54593C1.09259 7.41852 1.1963 7.31481 1.3237 7.31481H2.82059C3.30178 7.31481 3.71511 7.03867 3.89911 6.59422C4.08341 6.14978 3.98652 5.66207 3.64607 5.32193L2.5877 4.26385C2.49733 4.17348 2.49733 4.02681 2.5877 3.93674L3.93674 2.5877C4.02681 2.49733 4.17348 2.49733 4.26385 2.5877L5.32193 3.64578C5.66178 3.98563 6.14919 4.08311 6.59422 3.89881C7.03867 3.71511 7.31481 3.30178 7.31481 2.82059V1.3237C7.31481 1.1963 7.41852 1.09259 7.54593 1.09259H9.45378C9.58148 1.09259 9.68519 1.1963 9.68519 1.3237V2.82059C9.68519 3.30178 9.96133 3.71511 10.4058 3.89911C10.8508 4.08341 11.3379 3.98622 11.6781 3.64607L12.7361 2.588C12.8268 2.49763 12.9735 2.49763 13.0633 2.588L14.4123 3.93704C14.5027 4.02741 14.5027 4.17407 14.4123 4.26415L13.3539 5.32222C13.0138 5.66237 12.9166 6.15007 13.1009 6.59452C13.2849 7.03896 13.6982 7.31511 14.1794 7.31511H15.6763C15.8037 7.31481 15.9074 7.41852 15.9074 7.54593V9.45407Z"/>
<path d="M8.49994 5.83363C7.02942 5.83363 5.83327 7.02978 5.83327 8.50031C5.83327 9.97083 7.02942 11.167 8.49994 11.167C9.97045 11.167 11.1666 9.97083 11.1666 8.50031C11.1666 7.02978 9.97045 5.83363 8.49994 5.83363ZM8.49994 10.5744C7.35653 10.5744 6.42586 9.64372 6.42586 8.50031C6.42586 7.3569 7.35653 6.42623 8.49994 6.42623C9.64334 6.42623 10.574 7.3569 10.574 8.50031C10.574 9.64372 9.64334 10.5744 8.49994 10.5744Z"/>
</mask>
<path d="M15.6763 6.72222H14.1794C13.9388 6.72222 13.7406 6.58978 13.6484 6.36756C13.5563 6.14533 13.6031 5.91126 13.7729 5.74118L14.8313 4.68311C14.9868 4.52756 15.0724 4.32044 15.0724 4.10059C15.0724 3.88044 14.9868 3.67363 14.8313 3.51778L13.4822 2.16874C13.1711 1.85763 12.6286 1.85704 12.3169 2.16874L11.2588 3.22681C11.0887 3.39659 10.8541 3.444 10.6324 3.35156C10.4102 3.25941 10.2778 3.06119 10.2778 2.82059V1.3237C10.2778 0.869481 9.9083 0.5 9.45407 0.5H7.54593C7.0917 0.5 6.72222 0.869481 6.72222 1.3237V2.82059C6.72222 3.06119 6.58978 3.25941 6.36756 3.35156C6.14593 3.4443 5.91126 3.39659 5.74118 3.22681L4.68311 2.16874C4.37141 1.85704 3.82889 1.85763 3.51778 2.16874L2.16874 3.51778C2.01319 3.67333 1.92756 3.88044 1.92756 4.10059C1.92756 4.32044 2.01319 4.52726 2.16874 4.68311L3.22711 5.74118C3.39689 5.91126 3.44341 6.14533 3.35156 6.36756C3.2597 6.58978 3.06119 6.72222 2.82059 6.72222H1.3237C0.869481 6.72222 0.5 7.0917 0.5 7.54593V9.45378C0.5 9.9083 0.869481 10.2778 1.3237 10.2778H2.82059C3.06119 10.2778 3.25941 10.4102 3.35156 10.6324C3.4437 10.8547 3.39689 11.0887 3.22711 11.2588L2.16874 12.3169C2.01319 12.4724 1.92756 12.6796 1.92756 12.8994C1.92756 13.1196 2.01319 13.3264 2.16874 13.4822L3.51778 14.8313C3.82919 15.1427 4.37141 15.1433 4.68311 14.8313L5.74118 13.7729C5.91126 13.6031 6.14504 13.5563 6.36756 13.6484C6.58978 13.7406 6.72222 13.9388 6.72222 14.1794V15.6763C6.72222 16.1305 7.0917 16.5 7.54593 16.5H9.45378C9.908 16.5 10.2775 16.1305 10.2775 15.6763V14.1794C10.2775 13.9388 10.4099 13.7406 10.6321 13.6484C10.8547 13.556 11.0884 13.6031 11.2585 13.7729L12.3166 14.8313C12.6283 15.143 13.1708 15.1424 13.4819 14.8313L14.831 13.4822C14.9865 13.3267 15.0721 13.1196 15.0721 12.8994C15.0721 12.6796 14.9865 12.4727 14.831 12.3169L13.7726 11.2588C13.6028 11.0887 13.5563 10.8547 13.6481 10.6324C13.74 10.4102 13.9388 10.2778 14.1794 10.2778H15.6763C16.1305 10.2778 16.5 9.9083 16.5 9.45407V7.54593C16.5 7.0917 16.1305 6.72222 15.6763 6.72222ZM15.9074 9.45407C15.9074 9.58148 15.8037 9.68519 15.6763 9.68519H14.1794C13.6982 9.68519 13.2849 9.96133 13.1009 10.4058C12.9166 10.8502 13.0135 11.3379 13.3539 11.6781L14.4123 12.7361C14.5027 12.8265 14.5027 12.9732 14.4123 13.0633L13.0633 14.4123C12.9732 14.5024 12.8265 14.503 12.7361 14.4123L11.6781 13.3539C11.3376 13.0135 10.8502 12.9172 10.4058 13.1009C9.96133 13.2849 9.68519 13.6982 9.68519 14.1794V15.6763C9.68519 15.8037 9.58148 15.9074 9.45407 15.9074H7.54593C7.41852 15.9074 7.31481 15.8037 7.31481 15.6763V14.1794C7.31481 13.6982 7.03867 13.2849 6.59422 13.1009C6.44519 13.039 6.2917 13.0087 6.14 13.0087C5.83956 13.0087 5.5483 13.1273 5.32193 13.3536L4.26385 14.412C4.17318 14.5027 4.02652 14.5021 3.93674 14.412L2.5877 13.063C2.49733 12.9726 2.49733 12.8259 2.5877 12.7359L3.64607 11.6778C3.98622 11.3376 4.08341 10.8499 3.89911 10.4055C3.71511 9.96133 3.30178 9.68519 2.82059 9.68519H1.3237C1.1963 9.68519 1.09259 9.58148 1.09259 9.45407V7.54593C1.09259 7.41852 1.1963 7.31481 1.3237 7.31481H2.82059C3.30178 7.31481 3.71511 7.03867 3.89911 6.59422C4.08341 6.14978 3.98652 5.66207 3.64607 5.32193L2.5877 4.26385C2.49733 4.17348 2.49733 4.02681 2.5877 3.93674L3.93674 2.5877C4.02681 2.49733 4.17348 2.49733 4.26385 2.5877L5.32193 3.64578C5.66178 3.98563 6.14919 4.08311 6.59422 3.89881C7.03867 3.71511 7.31481 3.30178 7.31481 2.82059V1.3237C7.31481 1.1963 7.41852 1.09259 7.54593 1.09259H9.45378C9.58148 1.09259 9.68519 1.1963 9.68519 1.3237V2.82059C9.68519 3.30178 9.96133 3.71511 10.4058 3.89911C10.8508 4.08341 11.3379 3.98622 11.6781 3.64607L12.7361 2.588C12.8268 2.49763 12.9735 2.49763 13.0633 2.588L14.4123 3.93704C14.5027 4.02741 14.5027 4.17407 14.4123 4.26415L13.3539 5.32222C13.0138 5.66237 12.9166 6.15007 13.1009 6.59452C13.2849 7.03896 13.6982 7.31511 14.1794 7.31511H15.6763C15.8037 7.31481 15.9074 7.41852 15.9074 7.54593V9.45407Z" fill="#151515"/>
<path d="M8.49994 5.83363C7.02942 5.83363 5.83327 7.02978 5.83327 8.50031C5.83327 9.97083 7.02942 11.167 8.49994 11.167C9.97045 11.167 11.1666 9.97083 11.1666 8.50031C11.1666 7.02978 9.97045 5.83363 8.49994 5.83363ZM8.49994 10.5744C7.35653 10.5744 6.42586 9.64372 6.42586 8.50031C6.42586 7.3569 7.35653 6.42623 8.49994 6.42623C9.64334 6.42623 10.574 7.3569 10.574 8.50031C10.574 9.64372 9.64334 10.5744 8.49994 10.5744Z" fill="#151515"/>
<path d="M15.6763 6.72222H14.1794C13.9388 6.72222 13.7406 6.58978 13.6484 6.36756C13.5563 6.14533 13.6031 5.91126 13.7729 5.74118L14.8313 4.68311C14.9868 4.52756 15.0724 4.32044 15.0724 4.10059C15.0724 3.88044 14.9868 3.67363 14.8313 3.51778L13.4822 2.16874C13.1711 1.85763 12.6286 1.85704 12.3169 2.16874L11.2588 3.22681C11.0887 3.39659 10.8541 3.444 10.6324 3.35156C10.4102 3.25941 10.2778 3.06119 10.2778 2.82059V1.3237C10.2778 0.869481 9.9083 0.5 9.45407 0.5H7.54593C7.0917 0.5 6.72222 0.869481 6.72222 1.3237V2.82059C6.72222 3.06119 6.58978 3.25941 6.36756 3.35156C6.14593 3.4443 5.91126 3.39659 5.74118 3.22681L4.68311 2.16874C4.37141 1.85704 3.82889 1.85763 3.51778 2.16874L2.16874 3.51778C2.01319 3.67333 1.92756 3.88044 1.92756 4.10059C1.92756 4.32044 2.01319 4.52726 2.16874 4.68311L3.22711 5.74118C3.39689 5.91126 3.44341 6.14533 3.35156 6.36756C3.2597 6.58978 3.06119 6.72222 2.82059 6.72222H1.3237C0.869481 6.72222 0.5 7.0917 0.5 7.54593V9.45378C0.5 9.9083 0.869481 10.2778 1.3237 10.2778H2.82059C3.06119 10.2778 3.25941 10.4102 3.35156 10.6324C3.4437 10.8547 3.39689 11.0887 3.22711 11.2588L2.16874 12.3169C2.01319 12.4724 1.92756 12.6796 1.92756 12.8994C1.92756 13.1196 2.01319 13.3264 2.16874 13.4822L3.51778 14.8313C3.82919 15.1427 4.37141 15.1433 4.68311 14.8313L5.74118 13.7729C5.91126 13.6031 6.14504 13.5563 6.36756 13.6484C6.58978 13.7406 6.72222 13.9388 6.72222 14.1794V15.6763C6.72222 16.1305 7.0917 16.5 7.54593 16.5H9.45378C9.908 16.5 10.2775 16.1305 10.2775 15.6763V14.1794C10.2775 13.9388 10.4099 13.7406 10.6321 13.6484C10.8547 13.556 11.0884 13.6031 11.2585 13.7729L12.3166 14.8313C12.6283 15.143 13.1708 15.1424 13.4819 14.8313L14.831 13.4822C14.9865 13.3267 15.0721 13.1196 15.0721 12.8994C15.0721 12.6796 14.9865 12.4727 14.831 12.3169L13.7726 11.2588C13.6028 11.0887 13.5563 10.8547 13.6481 10.6324C13.74 10.4102 13.9388 10.2778 14.1794 10.2778H15.6763C16.1305 10.2778 16.5 9.9083 16.5 9.45407V7.54593C16.5 7.0917 16.1305 6.72222 15.6763 6.72222ZM15.9074 9.45407C15.9074 9.58148 15.8037 9.68519 15.6763 9.68519H14.1794C13.6982 9.68519 13.2849 9.96133 13.1009 10.4058C12.9166 10.8502 13.0135 11.3379 13.3539 11.6781L14.4123 12.7361C14.5027 12.8265 14.5027 12.9732 14.4123 13.0633L13.0633 14.4123C12.9732 14.5024 12.8265 14.503 12.7361 14.4123L11.6781 13.3539C11.3376 13.0135 10.8502 12.9172 10.4058 13.1009C9.96133 13.2849 9.68519 13.6982 9.68519 14.1794V15.6763C9.68519 15.8037 9.58148 15.9074 9.45407 15.9074H7.54593C7.41852 15.9074 7.31481 15.8037 7.31481 15.6763V14.1794C7.31481 13.6982 7.03867 13.2849 6.59422 13.1009C6.44519 13.039 6.2917 13.0087 6.14 13.0087C5.83956 13.0087 5.5483 13.1273 5.32193 13.3536L4.26385 14.412C4.17318 14.5027 4.02652 14.5021 3.93674 14.412L2.5877 13.063C2.49733 12.9726 2.49733 12.8259 2.5877 12.7359L3.64607 11.6778C3.98622 11.3376 4.08341 10.8499 3.89911 10.4055C3.71511 9.96133 3.30178 9.68519 2.82059 9.68519H1.3237C1.1963 9.68519 1.09259 9.58148 1.09259 9.45407V7.54593C1.09259 7.41852 1.1963 7.31481 1.3237 7.31481H2.82059C3.30178 7.31481 3.71511 7.03867 3.89911 6.59422C4.08341 6.14978 3.98652 5.66207 3.64607 5.32193L2.5877 4.26385C2.49733 4.17348 2.49733 4.02681 2.5877 3.93674L3.93674 2.5877C4.02681 2.49733 4.17348 2.49733 4.26385 2.5877L5.32193 3.64578C5.66178 3.98563 6.14919 4.08311 6.59422 3.89881C7.03867 3.71511 7.31481 3.30178 7.31481 2.82059V1.3237C7.31481 1.1963 7.41852 1.09259 7.54593 1.09259H9.45378C9.58148 1.09259 9.68519 1.1963 9.68519 1.3237V2.82059C9.68519 3.30178 9.96133 3.71511 10.4058 3.89911C10.8508 4.08341 11.3379 3.98622 11.6781 3.64607L12.7361 2.588C12.8268 2.49763 12.9735 2.49763 13.0633 2.588L14.4123 3.93704C14.5027 4.02741 14.5027 4.17407 14.4123 4.26415L13.3539 5.32222C13.0138 5.66237 12.9166 6.15007 13.1009 6.59452C13.2849 7.03896 13.6982 7.31511 14.1794 7.31511H15.6763C15.8037 7.31481 15.9074 7.41852 15.9074 7.54593V9.45407Z" stroke="#151515" stroke-width="0.2" mask="url(#path-1-outside-1)"/>
<path d="M8.49994 5.83363C7.02942 5.83363 5.83327 7.02978 5.83327 8.50031C5.83327 9.97083 7.02942 11.167 8.49994 11.167C9.97045 11.167 11.1666 9.97083 11.1666 8.50031C11.1666 7.02978 9.97045 5.83363 8.49994 5.83363ZM8.49994 10.5744C7.35653 10.5744 6.42586 9.64372 6.42586 8.50031C6.42586 7.3569 7.35653 6.42623 8.49994 6.42623C9.64334 6.42623 10.574 7.3569 10.574 8.50031C10.574 9.64372 9.64334 10.5744 8.49994 10.5744Z" stroke="#151515" stroke-width="0.2" mask="url(#path-1-outside-1)"/>
</svg>
