<svg width="17" height="16" viewBox="0 0 17 16" fill="none" xmlns="http://www.w3.org/2000/svg">
<path d="M8.95726 6.92892C8.78162 7.10574 8.78162 7.38933 8.95726 7.56615C9.68302 8.2968 9.68302 9.48453 8.95726 10.2152L5.14619 14.0519C4.42043 14.7826 3.24066 14.7826 2.5149 14.0519L1.94158 13.4748C1.21582 12.7441 1.21582 11.5564 1.94158 10.8257L5.75265 6.98897C5.92829 6.81215 5.92829 6.52856 5.75265 6.35173C5.57701 6.17491 5.29532 6.17491 5.11968 6.35173L1.30861 10.1885C0.788316 10.7123 0.5 11.4096 0.5 12.1502C0.5 12.8909 0.785002 13.5882 1.30861 14.112L1.88193 14.6892C2.41879 15.2296 3.12467 15.4999 3.83054 15.4999C4.53642 15.4999 5.2423 15.2296 5.77916 14.6892L9.59023 10.8524C10.664 9.77145 10.664 8.00988 9.59023 6.92892C9.4179 6.75209 9.1329 6.75209 8.95726 6.92892Z" fill="#151515"/>
<path d="M15.6946 1.88791L15.1213 1.31072C14.0475 0.229759 12.2978 0.229759 11.224 1.31072L7.41296 5.14748C6.33923 6.22845 6.33923 7.99002 7.41296 9.07099C7.5886 9.24781 7.87029 9.24781 8.04593 9.07099C8.22157 8.89416 8.22157 8.61057 8.04593 8.43375C7.32017 7.7031 7.32017 6.51537 8.04593 5.78472L11.857 1.94796C12.5828 1.21731 13.7625 1.21731 14.4883 1.94796L15.0616 2.52514C15.7874 3.25579 15.7874 4.44352 15.0616 5.17417L11.2505 9.01093C11.0749 9.18776 11.0749 9.47134 11.2505 9.64817C11.3367 9.73491 11.4527 9.78162 11.5654 9.78162C11.678 9.78162 11.794 9.73825 11.8802 9.64817L15.6913 5.81141C16.2116 5.28761 16.4999 4.59032 16.4999 3.84966C16.4999 3.109 16.2149 2.41171 15.6946 1.88791Z" fill="#151515"/>
</svg>
